<?xml version="1.0" encoding="UTF-8" standalone="no"?>
<!-- Created with Inkscape (http://www.inkscape.org/) -->

<svg
   xmlns:dc="http://purl.org/dc/elements/1.1/"
   xmlns:cc="http://creativecommons.org/ns#"
   xmlns:rdf="http://www.w3.org/1999/02/22-rdf-syntax-ns#"
   xmlns:svg="http://www.w3.org/2000/svg"
   xmlns="http://www.w3.org/2000/svg"
   xmlns:sodipodi="http://sodipodi.sourceforge.net/DTD/sodipodi-0.dtd"
   xmlns:inkscape="http://www.inkscape.org/namespaces/inkscape"
   version="1.1"
   id="svg4536"
   width="613.33331"
   height="341.33334"
   viewBox="0 0 613.33331 341.33334"
   sodipodi:docname="logo.svg"
   inkscape:export-filename="/home/daniel/g4546.png"
   inkscape:export-xdpi="299.9809"
   inkscape:export-ydpi="299.9809"
   inkscape:version="0.92.1 r15371">
  <metadata
     id="metadata4542">
    <rdf:RDF>
      <cc:Work
         rdf:about="">
        <dc:format>image/svg+xml</dc:format>
        <dc:type
           rdf:resource="http://purl.org/dc/dcmitype/StillImage" />
        <dc:title></dc:title>
      </cc:Work>
    </rdf:RDF>
  </metadata>
  <defs
     id="defs4540" />
  <sodipodi:namedview
     pagecolor="#ffffff"
     bordercolor="#666666"
     borderopacity="1"
     objecttolerance="10"
     gridtolerance="10"
     guidetolerance="10"
     inkscape:pageopacity="0"
     inkscape:pageshadow="2"
     inkscape:window-width="1920"
     inkscape:window-height="1080"
     id="namedview4538"
     showgrid="false"
     inkscape:pagecheckerboard="true"
     inkscape:zoom="1.6509407"
     inkscape:cx="275.23251"
     inkscape:cy="192.69225"
     inkscape:window-x="0"
     inkscape:window-y="0"
     inkscape:window-maximized="1"
     inkscape:current-layer="svg4536" />
  <g
     id="g4546"
     inkscape:export-xdpi="299.9809"
     inkscape:export-ydpi="299.9809">
    <path
       style="fill:#96989b;stroke-width:0.66666669"
       d="m 197.04761,286.95239 c -0.68653,-0.68654 -1.04762,-2.25495 -1.04762,-4.55046 0,-2.78853 0.31126,-3.79526 1.52638,-4.9368 1.4303,-1.34369 2.30112,-1.44644 13.83334,-1.63221 6.76882,-0.10904 1.05695,-0.27047 -12.69305,-0.35875 -18.51018,-0.11882 -25.43265,-0.37861 -26.66667,-1.00074 -1.46472,-0.73844 -1.69048,-1.33438 -1.86328,-4.91823 -0.1804,-3.74196 -0.0494,-4.19377 1.58991,-5.48325 1.74461,-1.37231 2.37091,-1.40528 26.69661,-1.40528 16.16229,0 24.91009,-0.23412 24.91009,-0.66666 0,-0.7854 -9.70987,-0.88106 -68.69119,-0.67674 C 108.4771,261.4832 109.568,261.56446 106,257.70006 l -1.66667,-1.80512 -0.36925,-24.7808 c -0.20308,-13.62944 -0.42808,-24.87282 -0.5,-24.98527 -0.0719,-0.11246 -0.7975,0.26254 -1.61242,0.83333 -2.362917,1.65505 -6.936577,1.34683 -8.881964,-0.59856 -1.444126,-1.44412 -1.636366,-2.21908 -1.636366,-6.59646 v -4.9601 l -2.459153,0.55464 c -2.634927,0.59426 -6.017587,0.19496 -7.37418,-0.87049 -0.63338,-0.49745 -0.833333,-5.42076 -0.833333,-20.51833 0,-10.92512 -0.182094,-20.33838 -0.40466,-20.91837 C 79.908744,152.13395 77.848784,152 64.044881,152 H 48.232417 l -1.565752,1.66667 c -1.328493,1.41411 -2.164367,1.66667 -5.516209,1.66667 -3.603788,0 -4.149367,-0.19891 -6.217124,-2.26667 -1.998547,-1.99855 -2.266667,-2.67813 -2.266667,-5.7451 0,-3.15171 0.243105,-3.72153 2.588236,-6.06667 2.32759,-2.32758 2.929476,-2.58823 5.976802,-2.58823 2.814436,0 3.774511,0.33887 5.666441,2 l 2.277874,2 h 14.945323 c 10.735249,0 15.170683,-0.22536 15.745323,-0.8 0.588653,-0.58865 0.8,-6.39659 0.8,-21.98463 V 98.697409 l 1.688546,-1.10638 c 1.276513,-0.836407 2.57794,-1.014587 5.333333,-0.730207 l 3.644787,0.376173 v -4.528587 c 0,-5.87164 1.46122,-8.04174 5.414826,-8.04174 1.45826,0 3.536484,0.457707 4.618284,1.01712 1.08179,0.559414 2.02553,0.934414 2.09721,0.833334 0.0717,-0.10108 0.29667,-11.185154 0.5,-24.631275 L 104.33333,37.438357 106,35.63326 c 3.59404,-3.892562 -10.72737,-3.633259 200.66665,-3.633259 210.12974,0 197.14425,-0.221186 200.4361,3.41408 2.59005,2.860261 2.88962,5.902028 2.89351,29.379718 l 0.004,22.460463 1.83333,-0.956354 c 2.92013,-1.523286 6.62718,-1.23134 8.5303,0.671794 1.45256,1.452553 1.63637,2.210006 1.63637,6.74334 v 5.106973 l 1.64321,-1.076673 c 2.31904,-1.519487 6.46334,-1.37582 8.59104,0.297827 l 1.74739,1.374493 0.17585,21.458838 0.17556,21.45884 14.90488,0.17961 14.90486,0.17961 2.59706,-2.34628 C 569.08207,138.23046 569.717,138 573.20445,138 c 3.49935,0 4.07004,0.20917 5.99808,2.19841 1.89919,1.95947 2.13078,2.61883 2.13078,6.06667 0,3.5103 -0.20975,4.078 -2.26667,6.13492 -1.96908,1.96909 -2.70122,2.26667 -5.57676,2.26667 -2.30063,0 -3.82702,-0.40662 -5.00515,-1.33333 C 566.89404,152.0821 565.78021,152 550.39483,152 h -16.39485 v 20.25948 c 0,18.3098 -0.11227,20.39602 -1.16667,21.6783 -1.29044,1.56934 -4.98292,2.06179 -8.66666,1.15582 l -2.16667,-0.53287 v 5.2964 c 0,4.34875 -0.24722,5.61069 -1.38172,7.05297 -1.18613,1.50792 -1.88832,1.75657 -4.96065,1.75657 -1.96842,0 -3.76435,-0.3 -3.99096,-0.66667 -1.40639,-2.27558 -1.66696,1.02624 -1.67039,21.16667 -0.004,22.82751 -0.31342,25.90333 -2.89351,28.75259 -3.16958,3.50024 -1.65436,3.41408 -60.04201,3.41408 -35.49114,0 -54.45819,0.23105 -54.72742,0.66667 -0.27224,0.4405 9.31595,0.66666 28.26262,0.66666 20.01227,0 29.17758,0.22916 30.33949,0.75856 3.95785,1.80332 3.93057,9.35867 -0.0403,11.16793 -1.09202,0.49755 -10.95639,0.7893 -30.09316,0.89003 -15.65774,0.0824 -23.23414,0.23976 -16.83644,0.34964 13.95057,0.23962 14.03448,0.2783 14.03448,6.4705 0,2.29742 -0.35136,4.44804 -0.8,4.89668 -0.61571,0.6157 -25.94497,0.8 -109.95238,0.8 -98.34054,0 -109.25615,-0.10377 -110.19999,-1.04762 z m 11.80941,-82.73019 c 10.21221,-2.2722 19.22688,-7.10598 26.97112,-14.46225 12.04518,-11.44175 17.86442,-24.21049 18.6387,-40.89759 0.32196,-6.93874 0.15808,-9.09957 -1.11238,-14.66667 -5.18521,-22.72156 -22.27997,-39.960301 -44.83077,-45.208375 -7.17198,-1.66908 -19.26974,-1.556153 -26.7246,0.249453 -14.41736,3.491967 -27.33202,12.528342 -35.53054,24.860682 -14.04836,21.13173 -12.71946,49.65092 3.23755,69.48063 14.24891,17.70706 36.994,25.61852 59.35092,20.64412 z m -22.85703,-6.55099 c -39.63872,-8.23885 -55.36161,-55.7201 -28.31969,-85.52213 8.80231,-9.70075 21.55233,-16.010358 33.01812,-16.339705 l 4.96824,-0.142706 0.33333,8.666671 0.33334,8.66666 12.28369,0.18216 c 7.6824,0.11392 12.61444,0.45666 13.16666,0.91496 0.48564,0.40305 0.88298,1.73552 0.88298,2.96106 0,2.77197 -1.38077,3.60849 -5.95617,3.60849 h -3.37716 V 149.185 c 0,32.2222 0.1101,31.48167 -4.68102,31.48167 -1.89358,0 -2.79395,-0.35231 -3.29553,-1.28951 -0.44507,-0.83162 -0.69012,-11.48402 -0.69012,-30 v -28.71049 h -4.32796 -4.32796 L 195.8387,159.5 l -0.17204,38.83334 -2.66667,0.11927 c -1.46666,0.0656 -4.61666,-0.28603 -7,-0.7814 z m 243.42913,6.64561 c 21.05479,-4.19373 39.0922,-21.52568 44.51814,-42.777 8.96039,-35.09438 -15.45484,-70.190278 -51.10256,-73.457812 -22.7259,-2.083093 -43.17319,7.651254 -55.49407,26.419062 -6.46283,9.84451 -9.32072,19.80045 -9.33907,32.53413 -0.0261,18.097 7.46587,33.9622 21.43441,45.3903 13.76432,11.26102 31.71135,15.53074 49.98315,11.89132 z m -11.77991,-6.48348 C 417.4793,197.375 417.26372,190.1 417.17013,181.66667 l -0.17015,-15.33333 h -1.66666 c -1.58786,0 -1.70909,0.28369 -2.56385,6 -0.49345,3.3 -1.20518,6.375 -1.58163,6.83333 -0.94698,1.15297 -5.5114,1.05005 -6.5046,-0.14667 -0.6456,-0.77792 -0.37804,-4.79915 1.2975,-19.5 1.16096,-10.186 2.71978,-23.92 3.46405,-30.52 1.58162,-14.02549 2.21927,-16.03614 5.34145,-16.84267 l 2.21374,-0.57187 0.33334,-7.95939 0.33333,-7.959401 4.66667,0.123633 c 10.62832,0.281567 22.14386,5.840118 31.35343,15.134298 9.64025,9.72882 14.14325,19.89703 14.79505,33.40874 1.24894,25.88974 -15.98214,48.04506 -41.45939,53.30753 -6.01875,1.24321 -8.96128,1.30363 -9.3732,0.19247 z m -0.31589,-47.37133 c 0,-4.06743 -0.25274,-7.11034 -0.56164,-6.76201 -0.7624,0.85973 -2.36609,13.33826 -1.8264,14.2115 0.2369,0.38332 0.87113,0.52794 1.40939,0.3214 0.77903,-0.29895 0.97865,-1.88395 0.97865,-7.77089 z m -40.28571,28.49037 c -0.92312,-0.92311 -1.04762,-4.82914 -1.04762,-32.86666 0,-23.85926 0.20012,-32.01918 0.8,-32.61905 0.54416,-0.54417 3.71335,-0.8 9.91009,-0.8 13.91229,0 14.20397,0.40598 13.70313,19.07333 -0.39841,14.84982 -0.3985,11.5852 6.7e-4,30.8159 0.23582,11.35556 0.11148,15.81082 -0.46049,16.5 -0.99019,1.19311 -5.54957,1.23422 -6.52505,0.0589 -0.47141,-0.56801 -0.7993,-6.00329 -0.91496,-15.16667 l -0.18006,-14.28143 h -4 -4 L 384.15962,164 c -0.15175,12.52194 -0.31529,14.43865 -1.29409,15.16667 -1.55114,1.15372 -4.56076,1.04287 -5.81792,-0.21429 z m 15.47026,-47.12946 c 0.22707,-12.11187 0.0284,-12.63134 -4.72588,-12.35632 l -3.45867,0.20007 -0.18293,11.1989 -0.18294,11.1989 4.18294,-0.1989 4.18293,-0.1989 z"
       id="path4560"
       inkscape:connector-curvature="0" />
    <path
       style="fill:#06bff5;stroke-width:0.66666669"
       d="m 210.99999,286.66667 -13.33333,-0.33333 -0.20338,-3.55412 c -0.11717,-2.04737 0.12941,-3.95511 0.58163,-4.5 0.62582,-0.75407 3.30324,-0.94795 13.20338,-0.95609 6.8301,-0.005 12.83708,-0.27534 13.34885,-0.59938 0.51176,-0.32405 0.74617,-1.06946 0.52092,-1.65646 -0.3658,-0.95324 -3.17562,-1.06728 -26.29715,-1.06728 -19.2459,0 -26.09283,-0.20525 -26.68758,-0.8 -0.44,-0.44 -0.8,-2.37945 -0.8,-4.30988 0,-2.78781 0.26528,-3.65186 1.2895,-4.2 0.8231,-0.44051 10.32763,-0.69012 26.27778,-0.69012 26.15347,0 26.42711,-0.0311 24.98584,-2.83334 -0.56428,-1.09714 -3.94979,-1.16666 -56.81132,-1.16666 h -56.21129 l -2.21096,-1.5 c -1.21602,-0.825 -2.58756,-2.55001 -3.04786,-3.83334 -1.22442,-3.41369 -1.22442,-212.586317 0,-216.000003 0.4603,-1.283333 1.83184,-3.008333 3.04786,-3.833333 l 2.21096,-1.5 H 307.00867 503.1535 l 1.83736,1.445267 c 3.88533,3.056198 3.67579,-3.322031 3.67579,111.888069 0,115.2101 0.20954,108.83187 -3.67579,111.88807 l -1.83736,1.44527 -55.07676,0.0102 c -30.29222,0.005 -55.48127,0.26656 -55.97568,0.57988 -0.49441,0.31332 -0.79035,1.13373 -0.65765,1.82313 0.23117,1.20095 1.46745,1.26073 29.52093,1.42721 33.05599,0.19618 31.70231,-0.0241 31.70231,5.15958 0,5.22329 1.43979,5 -32.24009,5 -26.71045,0 -29.84423,0.1107 -30.21131,1.06728 -0.22525,0.587 0.009,1.33241 0.52092,1.65646 0.51177,0.32404 6.18048,0.59836 12.59715,0.60959 6.41666,0.0112 12.11666,0.30488 12.66666,0.65256 0.69364,0.43848 1,1.77035 1,4.34744 0,2.55984 -0.311,3.92397 -1,4.38626 -1.0152,0.68117 -177.4586,0.63561 -204.99999,-0.0529 z m -5,-80.27376 C 225.32812,202.9374 241.33096,190.79488 250.00914,173 c 4.9316,-10.11241 5.63477,-13.3986 5.63477,-26.33333 0,-12.50067 -0.68829,-15.96157 -5.01747,-25.22901 -9.73224,-20.83372 -29.13642,-33.984932 -51.95978,-35.215818 -27.34104,-1.47454 -52.09221,15.539318 -60.63457,41.679958 -4.13636,12.65773 -4.12638,25.3066 0.0298,37.73247 9.55792,28.57585 38.60574,46.00273 67.93812,40.75864 z m -21.09069,-9.38854 c -16.03122,-3.48643 -30.35568,-15.56795 -36.55909,-30.83463 -6.40874,-15.77202 -4.22165,-34.65072 5.64132,-48.69508 8.27932,-11.78933 22.5709,-20.198491 36.13834,-21.263811 6.1418,-0.482254 5.79588,-1.094054 6.0399,10.682521 l 0.16356,7.89337 11.66666,-0.0648 c 6.41667,-0.0357 12.07119,0.19829 12.56559,0.51985 0.49442,0.32155 0.79154,1.1487 0.66029,1.8381 -0.19425,1.02025 -1.00655,1.31546 -4.36611,1.58678 -2.27011,0.18333 -4.43904,0.64513 -4.81984,1.02622 -0.45228,0.45262 -0.75263,10.85563 -0.86615,30 L 210.99999,179 l -1.92766,0.22006 c -1.09488,0.12498 -2.17051,-0.16303 -2.48979,-0.66667 -0.30917,-0.4877 -0.56673,-13.97963 -0.57234,-29.98206 -0.0116,-32.95565 0.60719,-29.90466 -6.06473,-29.90466 h -3.94548 v 38.61214 c 0,21.23668 -0.18209,39.08668 -0.40466,39.66667 -0.50322,1.31138 -4.81752,1.33516 -10.68603,0.0589 z m 246.75735,8.32547 c 20.67447,-5.3561 37.02063,-21.31217 43.40679,-42.37093 1.63096,-5.37817 1.80706,-6.96595 1.80706,-16.29224 0,-9.33114 -0.17591,-10.91525 -1.81382,-16.33333 -2.10464,-6.96203 -6.36994,-15.3294 -10.64878,-20.89008 -12.54494,-16.303085 -33.98615,-25.296925 -54.39188,-22.815472 -26.04355,3.16704 -46.74613,21.956802 -52.47308,47.624832 -1.6892,7.57095 -1.40264,19.31118 0.66439,27.21934 6.11126,23.38086 24.33124,40.30468 48.29143,44.85602 6.78275,1.28841 18.05869,0.84104 25.15789,-0.99814 z m -13.92701,-8.38003 c -0.25797,-0.67225 -0.42357,-8.09888 -0.36801,-16.50363 0.10717,-16.21046 0.0454,-16.53217 -3.05985,-15.93856 -1.85951,0.35547 -2.00845,0.746 -2.94694,7.72719 -0.38705,2.87914 -0.87018,5.50414 -1.07364,5.83333 -0.48382,0.78284 -4.10332,0.77524 -4.5884,-0.01 -0.51924,-0.84016 6.2145,-59.95458 7.08832,-62.2273 0.46599,-1.21196 1.39995,-2.01535 2.74942,-2.36503 l 2.0437,-0.52958 -0.17685,-7.1146 c -0.2354,-9.469875 -0.0979,-9.824455 3.80419,-9.812141 6.83531,0.0216 16.53797,3.360453 24.12174,8.300761 4.18774,2.72803 9.83814,8.18751 13.48497,13.02931 2.89799,3.84759 6.38264,11.51802 7.91071,17.41307 1.23794,4.77577 1.38598,6.73009 1.07758,14.22503 -0.41213,10.01588 -1.4836,14.08378 -5.89311,22.37345 -7.67825,14.43477 -23.25314,24.91981 -39.22137,26.40391 -3.95626,0.36769 -4.53858,0.27297 -4.95246,-0.80558 z M 416.99998,159.4898 C 417.75251,158.93692 418.03994,130 417.29291,130 c -0.64909,0 -0.98891,2.02512 -2.7192,16.2045 -1.33433,10.93456 -1.4049,12.61695 -0.55185,13.15646 1.17922,0.74582 2.085,0.785 2.97812,0.12884 z m -38.92501,18.26722 c -0.54404,-0.65553 -0.70653,-9.64194 -0.58164,-32.16667 l 0.17332,-31.25701 9.0336,-0.18462 c 8.97661,-0.18344 9.04389,-0.17366 10.66667,1.55196 1.59259,1.69352 1.6382,2.04001 1.84056,13.98065 0.16361,9.65406 0.005,12.63013 -0.74873,14.06911 -0.82159,1.56808 -0.82548,2.13795 -0.0276,4.04754 0.71631,1.71438 0.88749,5.45914 0.74873,16.37894 l -0.1799,14.15642 h -2.33333 -2.33333 l -0.33333,-14.52544 c -0.2738,-11.93078 -0.51196,-14.63816 -1.33334,-15.15646 -1.4383,-0.9076 -8.2539,-0.79754 -9.2,0.14856 -0.57189,0.5719 -0.8,4.8286 -0.8,14.92868 0,12.2685 -0.13884,14.18195 -1.05452,14.53333 -1.6515,0.63374 -2.71852,0.48141 -3.53716,-0.50499 z M 393.1376,142.2702 c 0.73511,-0.99566 0.89363,-3.55157 0.73343,-11.82531 -0.18482,-9.54524 -0.32819,-10.64551 -1.49846,-11.5 -1.57744,-1.15178 -7.79783,-1.25297 -8.90592,-0.14489 -0.56038,0.56039 -0.8,4.2445 -0.8,12.30021 0,13.2471 -0.0676,13.10253 5.93324,12.68855 2.56706,-0.1771 3.86897,-0.61279 4.53771,-1.51856 z m 118.57667,64.01552 c -0.93628,-0.93628 -1.04762,-7.19142 -1.04762,-58.85166 0,-65.124232 -0.35379,-60.767392 4.93448,-60.767392 5.4748,0 5.06552,-4.869093 5.06552,60.262992 0,38.58511 -0.22962,58.25371 -0.69012,59.11417 -0.89324,1.66903 -6.66612,1.83803 -8.26226,0.24189 z M 93.76999,205.44751 c -0.83984,-0.92801 -1.103327,-2.53865 -1.103327,-6.74439 v -5.52522 l -1.833333,0.45862 c -4.5223,1.13126 -6.215193,1.1517 -7.828686,0.0945 L 81.352297,192.64836 81.17615,171.82418 80.999997,151 l -15.888664,-0.17886 -15.888664,-0.17886 -2.540605,2.0122 c -5.236146,4.1471 -12.302463,1.7902 -13.129788,-4.37931 -0.995823,-7.42603 7.663108,-11.83116 13.071238,-6.64984 l 1.808075,1.73225 16.284204,-0.17879 L 80.999997,143 l 0.1762,-21.29137 c 0.199533,-24.110641 0.112593,-23.708628 5.127126,-23.708628 1.519834,0 3.103174,0.339833 3.518527,0.755187 0.415353,0.415353 1.225353,0.574773 1.8,0.35426 0.827553,-0.317567 1.044813,-1.5044 1.044813,-5.707574 0,-3.935327 0.27072,-5.577353 1.04762,-6.354253 1.52334,-1.52334 5.977007,-1.356327 7.619047,0.285713 1.31273,1.312727 1.33333,2.22222 1.33333,58.851665 0,64.80522 0.35274,60.48167 -4.934477,60.48167 -1.922967,0 -3.220067,-0.39911 -3.962193,-1.21916 z m 430.22999,-12.11417 c -1.30729,-1.3073 -1.33333,-2.22222 -1.33333,-46.85166 0,-51.344731 -0.28686,-48.490305 4.87113,-48.471471 5.03203,0.0184 4.75751,-1.21972 5.12887,23.131521 L 532.99998,143 l 15.90565,0.1789 15.90566,0.17891 2.59626,-2.34557 c 2.21017,-1.99675 3.07225,-2.34557 5.7969,-2.34557 2.74524,0 3.50381,0.3128 5.33141,2.19841 1.78078,1.83728 2.13078,2.71162 2.13078,5.32281 0,6.55445 -6.69596,9.96167 -12.19627,6.20601 l -2.5296,-1.72723 h -15.83706 c -11.42883,0 -16.05974,0.22268 -16.63706,0.8 -0.58696,0.58695 -0.8,6.16938 -0.8,20.9622 0,20.07929 -0.006,20.16646 -1.48168,21.2 -2.08109,1.45765 -5.57554,1.31392 -7.18499,-0.29553 z"
       id="path4558"
       inkscape:connector-curvature="0" />
    <path
       style="fill:#e78c06;stroke-width:0.66666669"
       d="m 210.99999,286.66667 -13.33333,-0.33333 -0.20338,-3.55412 c -0.11717,-2.04737 0.12941,-3.95511 0.58163,-4.5 0.6259,-0.75417 3.27714,-0.94588 13.08054,-0.94588 6.76254,0 12.838,-0.29032 13.50101,-0.64515 1.09261,-0.58475 1.24835,-0.2102 1.66321,4 0.34406,3.49166 0.7072,4.64515 1.46238,4.64515 0.55257,0 4.9594,-1.19156 9.79297,-2.64791 4.83356,-1.45634 13.8883,-4.123 20.12164,-5.9259 17.92696,-5.1851 38.50218,-11.36956 40.45322,-12.15934 1.59244,-0.64462 3.88011,-4.05596 3.88011,-5.78597 0,-0.35803 0.43634,-1.01309 0.96965,-1.45569 0.83621,-0.69399 0.87264,-0.4988 0.26468,1.41837 -1.52258,4.80144 -1.46538,4.86864 4.32887,5.08562 2.87642,0.10771 5.59686,-0.10874 6.04543,-0.48101 0.56329,-0.4675 1.22688,-0.38877 2.14529,0.2545 1.28056,0.89694 21.42505,7.12774 47.91274,14.81967 6.96667,2.0231 15.29749,4.44238 18.51294,5.37619 3.21544,0.9338 6.02885,1.51524 6.25201,1.29208 0.22317,-0.22316 0.59235,-2.14234 0.8204,-4.26485 0.26649,-2.48015 0.71242,-3.83527 1.24799,-3.79243 0.45833,0.0367 6.15833,0.11626 12.66666,0.17688 6.50833,0.0606 12.28333,0.39467 12.83333,0.74235 0.69364,0.43848 1,1.77035 1,4.34744 0,2.55984 -0.311,3.92397 -1,4.38626 -1.0152,0.68117 -177.4586,0.63561 -204.99999,-0.0529 z m -11.94124,-12.50792 c -17.79477,-0.11977 -26.2214,-0.4071 -26.83334,-0.91497 -0.54129,-0.44923 -0.89208,-2.14088 -0.89208,-4.30195 0,-2.83892 0.26164,-3.7016 1.2895,-4.2517 0.8231,-0.44051 10.32763,-0.69012 26.27778,-0.69012 19.38432,0 25.05633,-0.18689 25.29174,-0.83334 0.53192,-1.46064 1.22978,3.69674 1.01485,7.5 l -0.20721,3.66667 z m 190.94838,-2.82541 c 0.004,-1.65 0.18119,-4.05 0.39344,-5.33333 l 0.38592,-2.33334 29.74328,0.18691 c 33.54661,0.21081 32.13688,-0.0149 32.13688,5.14643 0,5.18012 1.4544,4.94978 -32.5377,5.1531 l -30.12934,0.18023 z m -77.84968,-11.41202 c -0.81994,-1.32661 -1.4908,-2.70512 -1.4908,-3.06335 0,-1.548 -2.64136,-3.02969 -4.67563,-2.62284 -1.12484,0.22497 -2.55798,0.11047 -3.18476,-0.25445 -1.13192,-0.65901 -78.18211,-24.64734 -79.16693,-24.64734 -0.53582,0 0.0932,22.75452 0.77396,28 l 0.38937,3 -56.85877,-0.17778 c -53.16551,-0.16624 -56.99145,-0.25503 -58.90134,-1.36697 -4.32595,-2.5186 -4.02541,5.40786 -4.21526,-111.17034 C 104.63776,31.238016 104.41764,37.717823 108.6585,34.833334 l 2.20534,-1.5 H 307.00867 503.1535 l 1.83736,1.445267 c 3.88533,3.056198 3.67579,-3.322031 3.67579,111.888069 0,113.86125 0.15677,108.57394 -3.31101,111.66667 -1.46359,1.3053 -2.68137,1.34034 -57.92534,1.66667 -31.03668,0.18333 -56.49352,0.32012 -56.57078,0.30398 -0.0772,-0.0161 0.44243,-6.76615 1.15487,-15.00001 0.71243,-8.23385 1.30064,-15.19564 1.30713,-15.47064 0.007,-0.275 -0.39015,-0.5 -0.88141,-0.5 -1.41219,0 -78.6818,24.08363 -79.57822,24.80318 -0.6228,0.49993 -0.57234,1.22686 0.22319,3.21508 0.56537,1.41301 0.92337,3.11194 0.79556,3.77542 -0.18161,0.94273 -0.55813,0.67929 -1.72319,-1.2057 z M 282.88621,233.6328 c 7.56837,-1.32386 16.12667,-4.43118 20.21993,-7.34139 1.77261,-1.26027 3.49283,-2.29141 3.82271,-2.29141 0.32989,0 2.19683,1.06005 4.14876,2.35567 7.79417,5.17348 18.87459,7.91675 30.48756,7.54805 6.96859,-0.22124 7.77654,-0.39263 12.11729,-2.57038 5.84465,-2.93226 8.41164,-6.27936 8.80176,-11.47664 0.19468,-2.59362 -0.0721,-4.13908 -1.01095,-5.8567 -1.49842,-2.74127 -5.01642,-5.33333 -7.23854,-5.33333 -1.91774,0 -2.06568,1.08555 -0.22743,1.66899 1.66206,0.52752 3.32602,3.62657 3.32602,6.19458 0,3.85204 -4.92323,5.828 -9.62555,3.86324 -1.40915,-0.58878 -5.70714,-3.04481 -9.55107,-5.45784 -9.85221,-6.18473 -11.85897,-6.93975 -18.37865,-6.91479 -4.40807,0.0169 -6.07939,0.33305 -8.77806,1.66057 -4.12269,2.02802 -4.22244,2.02784 -8.06401,-0.0147 -2.50909,-1.33409 -4.07922,-1.66351 -7.86862,-1.65084 -5.6448,0.0189 -8.94552,1.24966 -19.06737,7.10998 -11.08255,6.41655 -14.79673,7.50312 -17.44751,5.1042 -1.90471,-1.72375 -1.6558,-6.52064 0.44751,-8.62395 1.97759,-1.97759 2.04277,-2.27353 0.5,-2.27023 -2.04514,0.005 -5.23669,2.42945 -6.38669,4.85289 -2.81652,5.93536 -0.0804,13.83596 5.88669,16.9977 6.31253,3.3448 14.15698,4.14821 23.88622,2.44638 z M 205.99999,206.39291 C 225.32812,202.9374 241.33096,190.79488 250.00914,173 c 4.9316,-10.11241 5.63477,-13.3986 5.63477,-26.33333 0,-12.50067 -0.68829,-15.96157 -5.01747,-25.22901 -9.73224,-20.83372 -29.13642,-33.984932 -51.95978,-35.215818 -27.34104,-1.47454 -52.09221,15.539318 -60.63457,41.679958 -4.13636,12.65773 -4.12638,25.3066 0.0298,37.73247 9.55792,28.57585 38.60574,46.00273 67.93812,40.75864 z m -34.41446,-27.31187 c -4.38862,-1.99224 -4.2522,-0.8937 -4.2522,-34.24367 v -30.19929 l 1.63936,-0.74694 c 1.31278,-0.59814 1.9768,-0.52584 3.33333,0.363 l 1.69397,1.10994 v 28.51796 c 0,21.29175 0.20272,28.72068 0.8,29.31796 0.94802,0.94802 6.43682,1.05115 7.86667,0.14782 0.85909,-0.54276 1.02635,-4.71972 1.18701,-29.64389 0.1822,-28.26678 0.22138,-29.03051 1.52518,-29.72829 1.4371,-0.76911 3.97878,-0.26502 4.7776,0.94755 0.26939,0.40891 0.49439,13.74814 0.5,29.64273 0.011,31.11301 -0.0685,31.8886 -3.4896,34.06942 -2.14918,1.37 -12.86971,1.67666 -15.58132,0.4457 z m 34.8329,-0.76634 c -0.23014,-0.59972 -0.41844,-14.11016 -0.41844,-30.02319 v -28.93277 l -1.63244,-0.40972 c -0.89785,-0.22534 -3.29826,-0.30606 -5.33425,-0.17937 L 195.33151,119 l 6.6e-4,-2.11451 6.7e-4,-2.11452 12.16667,-0.0541 c 6.69166,-0.0298 12.57118,0.2077 13.06559,0.52774 0.49441,0.32002 0.79154,1.14592 0.66028,1.83532 -0.19424,1.02024 -1.00654,1.31546 -4.36611,1.58678 -2.27011,0.18333 -4.43904,0.64513 -4.81984,1.02622 -0.45228,0.45262 -0.75263,10.85562 -0.86614,30 l -0.1733,29.3071 -2.08156,0.20256 c -1.44428,0.14054 -2.20968,-0.13128 -2.5,-0.88786 z m 225.24822,27.01514 c 20.67447,-5.3561 37.02063,-21.31217 43.40679,-42.37093 1.63096,-5.37817 1.80706,-6.96595 1.80706,-16.29224 0,-9.33114 -0.17591,-10.91525 -1.81382,-16.33333 -2.10464,-6.96203 -6.36994,-15.3294 -10.64878,-20.89008 -12.54494,-16.303085 -33.98615,-25.296925 -54.39188,-22.815472 -26.04355,3.16704 -46.74613,21.956802 -52.47308,47.624832 -1.6892,7.57095 -1.40264,19.31118 0.66439,27.21934 6.11126,23.38086 24.33124,40.30468 48.29143,44.85602 6.78275,1.28841 18.05869,0.84104 25.15789,-0.99814 z m -6.81431,-26.79613 c -0.3851,-0.47687 -1.03114,-3.36539 -1.43565,-6.41891 -0.40451,-3.05354 -0.88687,-5.79684 -1.07191,-6.09625 -0.34971,-0.56585 -4.80892,-1.35256 -7.64078,-1.34802 -2.1738,0.003 -2.42574,0.55065 -3.27197,7.10609 -0.39896,3.09062 -0.90209,5.90523 -1.11806,6.25468 -0.50095,0.81056 -4.11385,0.83187 -4.61117,0.0272 -0.51728,-0.83699 6.21276,-59.94984 7.08324,-62.215 0.49071,-1.27695 1.42664,-2.02482 3.12394,-2.49628 3.6554,-1.01534 5.04746,-0.83326 6.64703,0.86942 1.32968,1.41537 1.74746,4.15043 4.8113,31.49769 1.84535,16.47125 3.26739,30.69877 3.16009,31.6167 -0.16234,1.38882 -0.59634,1.70261 -2.58548,1.86935 -1.38334,0.11596 -2.68537,-0.1649 -3.09058,-0.66667 z m -5.85236,-19.4906 c 0.73334,-0.11345 1.55834,-0.24456 1.83334,-0.29136 0.74323,-0.12647 0.61372,-3.27463 -0.5062,-12.30504 -1.88779,-15.22205 -2.94258,-19.21678 -3.85862,-14.61337 -0.20065,1.00833 -1.0533,7.47536 -1.89479,14.37116 -1.3349,10.93924 -1.40526,12.61912 -0.55185,13.17534 0.53797,0.35063 1.57812,0.46471 2.31146,0.25352 0.73333,-0.21118 1.93333,-0.4768 2.66666,-0.59025 z m 21.08628,19.66559 c -3.85566,-0.98351 -5.00697,-2.74315 -5.3106,-8.11666 -0.29105,-5.15084 0.11951,-5.89632 3.25766,-5.91516 2.3227,-0.0139 3.29811,1.15188 3.3102,3.95646 0.0144,3.3304 0.74323,4.13397 4.07401,4.49158 5.08403,0.54586 5.58245,-0.3133 5.58245,-9.62284 0,-9.2957 -0.0915,-9.49539 -8.60121,-18.76412 -7.26293,-7.91076 -7.73212,-9.02406 -7.73212,-18.3467 0,-11.82441 1.09486,-13.05792 11.59016,-13.05792 7.4336,0 9.3169,0.57522 10.71124,3.27158 1.22195,2.363 1.37205,8.7883 0.23193,9.92842 -0.88423,0.88423 -3.7879,1.05479 -4.9334,0.28979 -0.40337,-0.26939 -0.90848,-1.82927 -1.12245,-3.4664 -0.22693,-1.73633 -0.89359,-3.35539 -1.59993,-3.88566 -1.48889,-1.11776 -6.78815,-0.68429 -7.61646,0.623 -1.03668,1.63615 -0.68803,11.12199 0.49394,13.43904 0.5986,1.17346 3.53585,4.68356 6.52722,7.80023 7.88721,8.21759 8.66744,10.12138 8.933,21.79686 0.31449,13.8266 -0.75823,15.44481 -10.54858,15.91272 -2.75,0.13143 -6.01118,-0.019 -7.24706,-0.33422 z m -62.01129,-0.95168 c -0.54404,-0.65553 -0.70653,-9.64194 -0.58164,-32.16667 l 0.17332,-31.25701 9.0336,-0.18462 c 8.97661,-0.18344 9.04389,-0.17366 10.66667,1.55196 1.59259,1.69352 1.6382,2.04001 1.84056,13.98065 0.16361,9.65406 0.005,12.63013 -0.74873,14.06911 -0.82159,1.56808 -0.82548,2.13795 -0.0276,4.04754 0.71631,1.71438 0.88749,5.45914 0.74873,16.37894 l -0.1799,14.15642 h -2.33333 -2.33333 l -0.33333,-14.52544 c -0.2738,-11.93078 -0.51196,-14.63816 -1.33334,-15.15646 -1.4383,-0.9076 -8.2539,-0.79754 -9.2,0.14856 -0.57189,0.5719 -0.8,4.8286 -0.8,14.92868 0,12.2685 -0.13884,14.18195 -1.05452,14.53333 -1.6515,0.63374 -2.71852,0.48141 -3.53716,-0.50499 z M 393.1376,142.2702 c 0.73511,-0.99566 0.89363,-3.55157 0.73343,-11.82531 -0.18482,-9.54524 -0.32819,-10.64551 -1.49846,-11.5 -1.57744,-1.15178 -7.79783,-1.25297 -8.90592,-0.14489 -0.56038,0.56039 -0.8,4.2445 -0.8,12.30021 0,13.2471 -0.0676,13.10253 5.93324,12.68855 2.56706,-0.1771 3.86897,-0.61279 4.53771,-1.51856 z m 118.57667,64.01552 c -0.93628,-0.93628 -1.04762,-7.19142 -1.04762,-58.85166 0,-65.124232 -0.35379,-60.767392 4.93448,-60.767392 5.4748,0 5.06552,-4.869093 5.06552,60.262992 0,38.58511 -0.22962,58.25371 -0.69012,59.11417 -0.89324,1.66903 -6.66612,1.83803 -8.26226,0.24189 z M 93.76999,205.44751 c -0.83984,-0.92801 -1.103327,-2.53865 -1.103327,-6.74439 v -5.52522 l -1.833333,0.45862 c -4.5223,1.13126 -6.215193,1.1517 -7.828686,0.0945 L 81.352297,192.64836 81.17615,171.82418 80.999997,151 l -15.888664,-0.17886 -15.888664,-0.17886 -2.540605,2.0122 c -5.236146,4.1471 -12.302463,1.7902 -13.129788,-4.37931 -0.995823,-7.42603 7.663108,-11.83116 13.071238,-6.64984 l 1.808075,1.73225 16.284204,-0.17879 L 80.999997,143 l 0.1762,-21.29137 c 0.199533,-24.110641 0.112593,-23.708628 5.127126,-23.708628 1.519834,0 3.103174,0.339833 3.518527,0.755187 0.415353,0.415353 1.225353,0.574773 1.8,0.35426 0.827553,-0.317567 1.044813,-1.5044 1.044813,-5.707574 0,-3.935327 0.27072,-5.577353 1.04762,-6.354253 1.52334,-1.52334 5.977007,-1.356327 7.619047,0.285713 1.31273,1.312727 1.33333,2.22222 1.33333,58.851665 0,64.80522 0.35274,60.48167 -4.934477,60.48167 -1.922967,0 -3.220067,-0.39911 -3.962193,-1.21916 z m 430.22999,-12.11417 c -1.30729,-1.3073 -1.33333,-2.22222 -1.33333,-46.85166 0,-51.344731 -0.28686,-48.490305 4.87113,-48.471471 5.03203,0.0184 4.75751,-1.21972 5.12887,23.131521 L 532.99998,143 l 15.90565,0.1789 15.90566,0.17891 2.59626,-2.34557 c 2.21017,-1.99675 3.07225,-2.34557 5.7969,-2.34557 2.74524,0 3.50381,0.3128 5.33141,2.19841 1.78078,1.83728 2.13078,2.71162 2.13078,5.32281 0,6.55445 -6.69596,9.96167 -12.19627,6.20601 l -2.5296,-1.72723 h -15.83706 c -11.42883,0 -16.05974,0.22268 -16.63706,0.8 -0.58696,0.58695 -0.8,6.16938 -0.8,20.9622 0,20.07929 -0.006,20.16646 -1.48168,21.2 -2.08109,1.45765 -5.57554,1.31392 -7.18499,-0.29553 z"
       id="path4556"
       inkscape:connector-curvature="0" />
    <path
       style="fill:#31768c;stroke-width:0.66666669"
       d="m 210.99999,286.66667 -13.33333,-0.33333 -0.20338,-3.55412 c -0.11717,-2.04737 0.12941,-3.95511 0.58163,-4.5 0.6259,-0.75417 3.27714,-0.94588 13.08054,-0.94588 6.76254,0 12.838,-0.29032 13.50101,-0.64515 1.09261,-0.58475 1.24835,-0.2102 1.66321,4 0.34406,3.49166 0.7072,4.64515 1.46238,4.64515 0.55257,0 4.9594,-1.19156 9.79297,-2.64791 4.83356,-1.45634 13.8883,-4.123 20.12164,-5.9259 17.92696,-5.1851 38.50218,-11.36956 40.45322,-12.15934 1.59244,-0.64462 3.88011,-4.05596 3.88011,-5.78597 0,-0.35803 0.43634,-1.01309 0.96965,-1.45569 0.83621,-0.69399 0.87264,-0.4988 0.26468,1.41837 -1.52258,4.80144 -1.46538,4.86864 4.32887,5.08562 2.87642,0.10771 5.59686,-0.10874 6.04543,-0.48101 0.56329,-0.4675 1.22688,-0.38877 2.14529,0.2545 1.28056,0.89694 21.42505,7.12774 47.91274,14.81967 6.96667,2.0231 15.29749,4.44238 18.51294,5.37619 3.21544,0.9338 6.02885,1.51524 6.25201,1.29208 0.22317,-0.22316 0.59235,-2.14234 0.8204,-4.26485 0.26649,-2.48015 0.71242,-3.83527 1.24799,-3.79243 0.45833,0.0367 6.15833,0.11626 12.66666,0.17688 6.50833,0.0606 12.28333,0.39467 12.83333,0.74235 0.69364,0.43848 1,1.77035 1,4.34744 0,2.55984 -0.311,3.92397 -1,4.38626 -1.0152,0.68117 -177.4586,0.63561 -204.99999,-0.0529 z m -11.94124,-12.50792 c -17.79477,-0.11977 -26.2214,-0.4071 -26.83334,-0.91497 -0.54129,-0.44923 -0.89208,-2.14088 -0.89208,-4.30195 0,-2.83892 0.26164,-3.7016 1.2895,-4.2517 0.8231,-0.44051 10.32763,-0.69012 26.27778,-0.69012 19.38432,0 25.05633,-0.18689 25.29174,-0.83334 0.53192,-1.46064 1.22978,3.69674 1.01485,7.5 l -0.20721,3.66667 z m 190.94838,-2.82541 c 0.004,-1.65 0.18119,-4.05 0.39344,-5.33333 l 0.38592,-2.33334 29.74328,0.18691 c 33.54661,0.21081 32.13688,-0.0149 32.13688,5.14643 0,5.18012 1.4544,4.94978 -32.5377,5.1531 l -30.12934,0.18023 z m -77.84968,-11.41202 c -0.81994,-1.32661 -1.4908,-2.70512 -1.4908,-3.06335 0,-1.548 -2.64136,-3.02969 -4.67563,-2.62284 -1.12484,0.22497 -2.55798,0.11047 -3.18476,-0.25445 -1.13192,-0.65901 -78.18211,-24.64734 -79.16693,-24.64734 -0.54879,0 0.0997,22.78024 0.80498,28.27599 0.38735,3.01846 0.32153,3.23806 -0.83722,2.7934 -0.69169,-0.26542 -26.33803,-0.46202 -56.99188,-0.43689 l -55.73426,0.0457 -2.21951,-1.50576 c -1.22353,-0.83008 -2.59506,-2.55283 -3.05642,-3.83911 -1.22442,-3.41368 -1.22442,-212.586313 0,-215.999999 0.4603,-1.283334 1.83184,-3.008334 3.04786,-3.833334 l 2.21096,-1.5 H 307.00867 503.1535 l 1.83736,1.445267 c 3.88533,3.056225 3.67579,-3.322004 3.67579,111.888096 0,113.86125 0.15677,108.57394 -3.31101,111.66667 -1.46359,1.3053 -2.68137,1.34034 -57.92534,1.66667 -31.03668,0.18333 -56.49352,0.32012 -56.57078,0.30398 -0.0772,-0.0161 0.44243,-6.76615 1.15487,-15.00001 0.71243,-8.23385 1.30064,-15.19564 1.30713,-15.47064 0.007,-0.275 -0.39015,-0.5 -0.88141,-0.5 -1.41219,0 -78.6818,24.08363 -79.57822,24.80318 -0.6228,0.49993 -0.57234,1.22686 0.22319,3.21508 0.56537,1.41301 0.92337,3.11194 0.79556,3.77542 -0.18161,0.94273 -0.55813,0.67929 -1.72319,-1.2057 z M 171.66666,254.17208 C 165.1055,250.71914 158.37301,243.83798 154.86563,237 c -3.22099,-6.27959 -4.54984,-10.49678 -5.88196,-18.66666 -1.13433,-6.95684 -1.33675,-21 -0.3027,-21 0.37454,0 2.54954,1.44909 4.83334,3.22021 8.76742,6.79926 19.39736,11.73648 29.74246,13.81429 7.44398,1.49512 23.5321,1.03424 30.40989,-0.87116 22.41299,-6.20922 39.45914,-21.60044 47.43526,-42.83001 3.34783,-8.91075 4.44126,-16.11645 4.04652,-26.66667 -0.5194,-13.8822 -3.85848,-24.3274 -11.36388,-35.54808 -9.21622,-13.778398 -22.3124,-23.293232 -38.78457,-28.178345 -8.09047,-2.399373 -23.0897,-3.012 -31.67233,-1.29362 -24.13738,4.83268 -44.18279,22.277325 -51.99647,45.250225 -2.76724,8.13594 -3.54163,13.04174 -3.54163,22.43649 0,9.39475 0.77439,14.30055 3.54163,22.43649 2.3893,7.02475 5.70516,13.1399 10.56555,19.48512 2.07346,2.70688 4.14492,5.42678 4.60326,6.0442 0.64616,0.87046 0.66801,2.0111 0.0973,5.0784 -1.43685,7.72189 0.59688,23.2813 4.33901,33.19638 2.19246,5.80912 6.89657,12.90506 10.92967,16.48692 3.1158,2.7672 11.502,7.29009 13.44857,7.25317 0.56034,-0.0106 -1.08119,-1.12451 -3.64786,-2.47527 z m 17.66667,-42.26999 C 167.16895,209.60452 147.29015,195.87411 137.35449,176 c -5.10299,-10.20742 -6.98397,-18.49386 -6.88555,-30.33333 0.0576,-6.92843 0.40678,-9.95281 1.74098,-15.07925 6.61771,-25.4275 25.95703,-43.726952 51.73033,-48.948832 7.51284,-1.522166 21.41817,-1.06168 29.05974,0.962327 18.32151,4.85278 33.9489,17.759445 42.34623,34.973785 5.24591,10.75397 6.23726,15.32487 6.23726,28.75864 0,13.28096 -0.98882,17.97926 -5.95613,28.29998 -8.55921,17.78373 -24.56046,30.99466 -43.11377,35.59554 -3.73688,0.92668 -16.04122,2.6009 -17.18025,2.33767 -0.18334,-0.0423 -2.88334,-0.34136 -6,-0.66444 z m 16.66666,-5.50918 C 225.32812,202.9374 241.33096,190.79488 250.00914,173 c 4.9316,-10.11241 5.63477,-13.3986 5.63477,-26.33333 0,-12.50067 -0.68829,-15.96157 -5.01747,-25.22901 -9.73224,-20.83372 -29.13642,-33.984932 -51.95978,-35.215818 -27.34104,-1.47454 -52.09221,15.539318 -60.63457,41.679958 -4.13636,12.65773 -4.12638,25.3066 0.0298,37.73247 9.55792,28.57585 38.60574,46.00273 67.93812,40.75864 z m -34.41446,-27.31187 c -4.38862,-1.99224 -4.2522,-0.8937 -4.2522,-34.24367 v -30.19929 l 1.63936,-0.74694 c 1.31278,-0.59814 1.9768,-0.52584 3.33333,0.363 l 1.69397,1.10994 v 28.51796 c 0,21.29175 0.20272,28.72068 0.8,29.31796 0.94802,0.94802 6.43682,1.05115 7.86667,0.14782 0.85909,-0.54276 1.02635,-4.71972 1.18701,-29.64389 0.1822,-28.26678 0.22138,-29.03051 1.52518,-29.72829 1.4371,-0.76911 3.97878,-0.26502 4.7776,0.94755 0.26939,0.40891 0.49439,13.74814 0.5,29.64273 0.011,31.11301 -0.0685,31.8886 -3.4896,34.06942 -2.14918,1.37 -12.86971,1.67666 -15.58132,0.4457 z m 34.8329,-0.76634 c -0.23014,-0.59972 -0.41844,-14.11016 -0.41844,-30.02319 v -28.93277 l -1.63244,-0.40972 c -0.89785,-0.22534 -3.29826,-0.30606 -5.33425,-0.17937 L 195.33151,119 l 6.6e-4,-2.11451 6.7e-4,-2.11452 12.16667,-0.0541 c 6.69166,-0.0298 12.57118,0.2077 13.06559,0.52774 0.49441,0.32002 0.79154,1.14592 0.66028,1.83532 -0.19424,1.02024 -1.00654,1.31546 -4.36611,1.58678 -2.27011,0.18333 -4.43904,0.64513 -4.81984,1.02622 -0.45228,0.45262 -0.75263,10.85562 -0.86614,30 l -0.1733,29.3071 -2.08156,0.20256 c -1.44428,0.14054 -2.20968,-0.13128 -2.5,-0.88786 z m 76.46778,55.3181 c 7.56837,-1.32386 16.12667,-4.43118 20.21993,-7.34139 1.77261,-1.26027 3.49283,-2.29141 3.82271,-2.29141 0.32989,0 2.19683,1.06005 4.14876,2.35567 7.79417,5.17348 18.87459,7.91675 30.48756,7.54805 6.96859,-0.22124 7.77654,-0.39263 12.11729,-2.57038 5.84465,-2.93226 8.41164,-6.27936 8.80176,-11.47664 0.19468,-2.59362 -0.0721,-4.13908 -1.01095,-5.8567 -1.49842,-2.74127 -5.01642,-5.33333 -7.23854,-5.33333 -1.91774,0 -2.06568,1.08555 -0.22743,1.66899 1.66206,0.52752 3.32602,3.62657 3.32602,6.19458 0,3.85204 -4.92323,5.828 -9.62555,3.86324 -1.40915,-0.58878 -5.70714,-3.04481 -9.55107,-5.45784 -9.85221,-6.18473 -11.85897,-6.93975 -18.37865,-6.91479 -4.40807,0.0169 -6.07939,0.33305 -8.77806,1.66057 -4.12269,2.02802 -4.22244,2.02784 -8.06401,-0.0147 -2.50909,-1.33409 -4.07922,-1.66351 -7.86862,-1.65084 -5.6448,0.0189 -8.94552,1.24966 -19.06737,7.10998 -11.08255,6.41655 -14.79673,7.50312 -17.44751,5.1042 -1.90471,-1.72375 -1.6558,-6.52064 0.44751,-8.62395 1.97759,-1.97759 2.04277,-2.27353 0.5,-2.27023 -2.04514,0.005 -5.23669,2.42945 -6.38669,4.85289 -2.81652,5.93536 -0.0804,13.83596 5.88669,16.9977 6.31253,3.3448 14.15698,4.14821 23.88622,2.44638 z m 148.78044,-28.30296 c 20.67447,-5.3561 37.02063,-21.31217 43.40679,-42.37093 1.63096,-5.37817 1.80706,-6.96595 1.80706,-16.29224 0,-9.33114 -0.17591,-10.91525 -1.81382,-16.33333 -2.10464,-6.96203 -6.36994,-15.3294 -10.64878,-20.89008 -12.54494,-16.303085 -33.98615,-25.296925 -54.39188,-22.815472 -26.04355,3.16704 -46.74613,21.956802 -52.47308,47.624832 -1.6892,7.57095 -1.40264,19.31118 0.66439,27.21934 6.11126,23.38086 24.33124,40.30468 48.29143,44.85602 6.78275,1.28841 18.05869,0.84104 25.15789,-0.99814 z m -6.81431,-26.79613 c -0.3851,-0.47687 -1.03114,-3.36539 -1.43565,-6.41891 -0.40451,-3.05354 -0.88687,-5.79684 -1.07191,-6.09625 -0.34971,-0.56585 -4.80892,-1.35256 -7.64078,-1.34802 -2.1738,0.003 -2.42574,0.55065 -3.27197,7.10609 -0.39896,3.09062 -0.90209,5.90523 -1.11806,6.25468 -0.50095,0.81056 -4.11385,0.83187 -4.61117,0.0272 -0.51728,-0.83699 6.21276,-59.94984 7.08324,-62.215 0.49071,-1.27695 1.42664,-2.02482 3.12394,-2.49628 3.6554,-1.01534 5.04746,-0.83326 6.64703,0.86942 1.32968,1.41537 1.74746,4.15043 4.8113,31.49769 1.84535,16.47125 3.26739,30.69877 3.16009,31.6167 -0.16234,1.38882 -0.59634,1.70261 -2.58548,1.86935 -1.38334,0.11596 -2.68537,-0.1649 -3.09058,-0.66667 z m -5.85236,-19.4906 c 0.73334,-0.11345 1.55834,-0.24456 1.83334,-0.29136 0.74323,-0.12647 0.61372,-3.27463 -0.5062,-12.30504 -1.88779,-15.22205 -2.94258,-19.21678 -3.85862,-14.61337 -0.20065,1.00833 -1.0533,7.47536 -1.89479,14.37116 -1.3349,10.93924 -1.40526,12.61912 -0.55185,13.17534 0.53797,0.35063 1.57812,0.46471 2.31146,0.25352 0.73333,-0.21118 1.93333,-0.4768 2.66666,-0.59025 z m 21.08628,19.66559 c -3.85566,-0.98351 -5.00697,-2.74315 -5.3106,-8.11666 -0.29105,-5.15084 0.11951,-5.89632 3.25766,-5.91516 2.3227,-0.0139 3.29811,1.15188 3.3102,3.95646 0.0144,3.3304 0.74323,4.13397 4.07401,4.49158 5.08403,0.54586 5.58245,-0.3133 5.58245,-9.62284 0,-9.2957 -0.0915,-9.49539 -8.60121,-18.76412 -7.26293,-7.91076 -7.73212,-9.02406 -7.73212,-18.3467 0,-11.82441 1.09486,-13.05792 11.59016,-13.05792 7.4336,0 9.3169,0.57522 10.71124,3.27158 1.22195,2.363 1.37205,8.7883 0.23193,9.92842 -0.88423,0.88423 -3.7879,1.05479 -4.9334,0.28979 -0.40337,-0.26939 -0.90848,-1.82927 -1.12245,-3.4664 -0.22693,-1.73633 -0.89359,-3.35539 -1.59993,-3.88566 -1.48889,-1.11776 -6.78815,-0.68429 -7.61646,0.623 -1.03668,1.63615 -0.68803,11.12199 0.49394,13.43904 0.5986,1.17346 3.53585,4.68356 6.52722,7.80023 7.88721,8.21759 8.66744,10.12138 8.933,21.79686 0.31449,13.8266 -0.75823,15.44481 -10.54858,15.91272 -2.75,0.13143 -6.01118,-0.019 -7.24706,-0.33422 z m -62.01129,-0.95168 c -0.54404,-0.65553 -0.70653,-9.64194 -0.58164,-32.16667 l 0.17332,-31.25701 9.0336,-0.18462 c 8.97661,-0.18344 9.04389,-0.17366 10.66667,1.55196 1.59259,1.69352 1.6382,2.04001 1.84056,13.98065 0.16361,9.65406 0.005,12.63013 -0.74873,14.06911 -0.82159,1.56808 -0.82548,2.13795 -0.0276,4.04754 0.71631,1.71438 0.88749,5.45914 0.74873,16.37894 l -0.1799,14.15642 h -2.33333 -2.33333 l -0.33333,-14.52544 c -0.2738,-11.93078 -0.51196,-14.63816 -1.33334,-15.15646 -1.4383,-0.9076 -8.2539,-0.79754 -9.2,0.14856 -0.57189,0.5719 -0.8,4.8286 -0.8,14.92868 0,12.2685 -0.13884,14.18195 -1.05452,14.53333 -1.6515,0.63374 -2.71852,0.48141 -3.53716,-0.50499 z M 393.1376,142.2702 c 0.73511,-0.99566 0.89363,-3.55157 0.73343,-11.82531 -0.18482,-9.54524 -0.32819,-10.64551 -1.49846,-11.5 -1.57744,-1.15178 -7.79783,-1.25297 -8.90592,-0.14489 -0.56038,0.56039 -0.8,4.2445 -0.8,12.30021 0,13.2471 -0.0676,13.10253 5.93324,12.68855 2.56706,-0.1771 3.86897,-0.61279 4.53771,-1.51856 z m 118.57667,64.01552 c -0.93628,-0.93628 -1.04762,-7.19142 -1.04762,-58.85166 0,-65.124232 -0.35379,-60.767392 4.93448,-60.767392 5.4748,0 5.06552,-4.869093 5.06552,60.262992 0,38.58511 -0.22962,58.25371 -0.69012,59.11417 -0.89324,1.66903 -6.66612,1.83803 -8.26226,0.24189 z M 93.76999,205.44751 c -0.83984,-0.92801 -1.103327,-2.53865 -1.103327,-6.74439 v -5.52522 l -1.833333,0.45862 c -4.5223,1.13126 -6.215193,1.1517 -7.828686,0.0945 L 81.352297,192.64836 81.17615,171.82418 80.999997,151 l -15.888664,-0.17886 -15.888664,-0.17886 -2.540605,2.0122 c -5.236146,4.1471 -12.302463,1.7902 -13.129788,-4.37931 -0.995823,-7.42603 7.663108,-11.83116 13.071238,-6.64984 l 1.808075,1.73225 16.284204,-0.17879 L 80.999997,143 l 0.1762,-21.29137 c 0.199533,-24.110641 0.112593,-23.708628 5.127126,-23.708628 1.519834,0 3.103174,0.339833 3.518527,0.755187 0.415353,0.415353 1.225353,0.574773 1.8,0.35426 0.827553,-0.317567 1.044813,-1.5044 1.044813,-5.707574 0,-3.935327 0.27072,-5.577353 1.04762,-6.354253 1.52334,-1.52334 5.977007,-1.356327 7.619047,0.285713 1.31273,1.312727 1.33333,2.22222 1.33333,58.851665 0,64.80522 0.35274,60.48167 -4.934477,60.48167 -1.922967,0 -3.220067,-0.39911 -3.962193,-1.21916 z m 430.22999,-12.11417 c -1.30729,-1.3073 -1.33333,-2.22222 -1.33333,-46.85166 0,-51.344731 -0.28686,-48.490305 4.87113,-48.471471 5.03203,0.0184 4.75751,-1.21972 5.12887,23.131521 L 532.99998,143 l 15.90565,0.1789 15.90566,0.17891 2.59626,-2.34557 c 2.21017,-1.99675 3.07225,-2.34557 5.7969,-2.34557 2.74524,0 3.50381,0.3128 5.33141,2.19841 1.78078,1.83728 2.13078,2.71162 2.13078,5.32281 0,6.55445 -6.69596,9.96167 -12.19627,6.20601 l -2.5296,-1.72723 h -15.83706 c -11.42883,0 -16.05974,0.22268 -16.63706,0.8 -0.58696,0.58695 -0.8,6.16938 -0.8,20.9622 0,20.07929 -0.006,20.16646 -1.48168,21.2 -2.08109,1.45765 -5.57554,1.31392 -7.18499,-0.29553 z"
       id="path4554"
       inkscape:connector-curvature="0" />
    <path
       style="fill:#b65a21;stroke-width:0.66666669"
       d="m 267.66666,286.66667 c -20.9,-0.19242 -37.75656,-0.42114 -37.45901,-0.50826 0.29755,-0.0871 7.15995,-2.11148 15.24979,-4.49859 8.08984,-2.3871 16.84639,-4.66703 19.459,-5.06651 2.61262,-0.39947 5.27212,-1.19008 5.91,-1.75691 0.63788,-0.56682 7.53788,-2.94366 15.33334,-5.28185 13.85528,-4.15581 14.3457,-4.25127 21.84021,-4.25127 7.49451,0 7.98492,0.0955 21.84021,4.25127 7.79545,2.33819 14.69545,4.70123 15.33333,5.25118 0.63789,0.54996 3.29545,1.34 5.9057,1.75564 2.61024,0.41565 11.3668,2.70938 19.459,5.09718 8.09221,2.3878 14.95655,4.34605 15.2541,4.35166 0.29754,0.005 0.091,0.30102 -0.45901,0.65646 -1.03058,0.66602 -45.32977,0.66602 -117.66666,0 z m 122.63042,0.289 c -0.48328,-0.21531 -0.50604,-1.76749 -0.0728,-4.96774 l 0.63007,-4.65459 h 12.22413 12.22414 l 1.10126,1.68073 c 1.07222,1.63641 1.02864,6.43996 -0.0684,7.541 -0.50355,0.50538 -24.95865,0.88162 -26.03834,0.4006 z m -192.51931,-0.73344 c -0.7678,-0.7678 -0.48285,-7.25048 0.35556,-8.08889 0.56695,-0.56695 4.54814,-0.8 13.66666,-0.8 11.79099,0 12.87073,0.0975 12.91533,1.16667 0.0268,0.64166 0.27299,2.74166 0.54715,4.66666 l 0.49848,3.5 h -13.76936 c -7.57316,0 -13.96938,-0.2 -14.21382,-0.44444 z m -25.64444,-13.02222 c -0.44,-0.44 -0.8,-2.37945 -0.8,-4.30988 0,-2.80192 0.26316,-3.65072 1.30472,-4.20814 0.85967,-0.46008 9.78532,-0.63864 26.16666,-0.52346 l 24.86195,0.17481 0.19587,4.83333 0.19587,4.83334 h -25.56253 c -18.99309,0 -25.76814,-0.2056 -26.36254,-0.8 z m 219.19999,-3.14548 c 0,-6.67318 -3.06882,-6.05452 30.03352,-6.05452 h 29.2242 l 1.03781,1.48167 c 1.43301,2.04592 1.33527,6.04247 -0.18136,7.415 -1.09571,0.99161 -4.201,1.10333 -30.66667,1.10333 h -29.4475 z M 108.66631,258.50905 c -1.22797,-0.83307 -2.59927,-2.55425 -3.06129,-3.84238 -1.22442,-3.41369 -1.22442,-212.586317 0,-216.000003 0.4603,-1.283333 1.83184,-3.008333 3.04786,-3.833333 l 2.21096,-1.5 195.73474,0.0098 c 154.01694,0.0077 196.07626,0.185345 197.33713,0.833333 0.88132,0.452928 2.23132,1.670471 3,2.705651 l 1.3976,1.882146 0.19644,106.451186 c 0.13192,71.48405 -0.0287,107.23076 -0.48878,108.82445 -0.37688,1.30529 -1.46436,3.10529 -2.41664,4 l -1.7314,1.62674 -55.94647,0.17783 c -44.80457,0.14242 -55.94469,0.01 -55.93752,-0.66666 0.0213,-2.00407 1.98542,-24.46394 2.39018,-27.33134 0.36384,-2.57751 0.24534,-3.23019 -0.64881,-3.57331 -1.04048,-0.39927 -77.3331,22.83366 -81.28968,24.75466 -1.26238,0.61291 -2.38062,0.71611 -3.43126,0.31666 -0.85722,-0.32591 -2.41451,-0.58285 -3.46064,-0.57097 -1.04614,0.0119 -19.87563,-5.57076 -41.84332,-12.40588 -21.96769,-6.83512 -40.38985,-12.25534 -40.93815,-12.04494 -0.86156,0.33061 -0.92646,2.07689 -0.47812,12.86324 0.28532,6.8644 0.55748,13.83071 0.60481,15.48071 l 0.086,3 -56.05465,0.17571 -56.05466,0.17572 -2.22437,-1.50905 z m 63.00035,-4.33697 C 165.1055,250.71914 158.37301,243.83798 154.86563,237 c -3.22099,-6.27959 -4.54984,-10.49678 -5.88196,-18.66666 -1.13433,-6.95684 -1.33675,-21 -0.3027,-21 0.37454,0 2.54954,1.44909 4.83334,3.22021 8.76742,6.79926 19.39736,11.73648 29.74246,13.81429 7.44398,1.49512 23.5321,1.03424 30.40989,-0.87116 22.41299,-6.20922 39.45914,-21.60044 47.43526,-42.83001 3.34783,-8.91075 4.44126,-16.11645 4.04652,-26.66667 -0.5194,-13.8822 -3.85848,-24.3274 -11.36388,-35.54808 -9.21622,-13.778398 -22.3124,-23.293232 -38.78457,-28.178345 -8.09047,-2.399373 -23.0897,-3.012 -31.67233,-1.29362 -24.13738,4.83268 -44.18279,22.277325 -51.99647,45.250225 -2.76724,8.13594 -3.54163,13.04174 -3.54163,22.43649 0,9.39475 0.77439,14.30055 3.54163,22.43649 2.3893,7.02475 5.70516,13.1399 10.56555,19.48512 2.07346,2.70688 4.14492,5.42678 4.60326,6.0442 0.64616,0.87046 0.66801,2.0111 0.0973,5.0784 -1.43685,7.72189 0.59688,23.2813 4.33901,33.19638 2.19246,5.80912 6.89657,12.90506 10.92967,16.48692 3.1158,2.7672 11.502,7.29009 13.44857,7.25317 0.56034,-0.0106 -1.08119,-1.12451 -3.64786,-2.47527 z m 17.66667,-42.26999 C 167.16895,209.60452 147.29015,195.87411 137.35449,176 c -5.10299,-10.20742 -6.98397,-18.49386 -6.88555,-30.33333 0.0576,-6.92843 0.40678,-9.95281 1.74098,-15.07925 6.61771,-25.4275 25.95703,-43.726952 51.73033,-48.948832 7.51284,-1.522166 21.41817,-1.06168 29.05974,0.962327 18.32151,4.85278 33.9489,17.759445 42.34623,34.973785 5.24591,10.75397 6.23726,15.32487 6.23726,28.75864 0,13.28096 -0.98882,17.97926 -5.95613,28.29998 -8.55921,17.78373 -24.56046,30.99466 -43.11377,35.59554 -3.73688,0.92668 -16.04122,2.6009 -17.18025,2.33767 -0.18334,-0.0423 -2.88334,-0.34136 -6,-0.66444 z m 22.9671,-6.87474 c 20.91789,-6.18975 36.41474,-22.14479 42.11547,-43.36068 2.50936,-9.33885 2.50846,-20.37783 -0.003,-29.96503 -6.79682,-25.95198 -28.99629,-44.141585 -55.54404,-45.511165 -8.38709,-0.43268 -15.17677,0.419133 -22.08499,2.77072 -20.23308,6.887434 -34.66055,22.340425 -40.18289,43.039145 -2.15215,8.06662 -2.15215,21.26604 0,29.33266 6.19246,23.21043 23.81114,39.94878 47.39843,45.03011 7.02359,1.51307 20.88381,0.85887 28.30044,-1.33576 z m -5.18932,-26.13846 c -0.24445,-0.24444 -0.44445,-13.42301 -0.44445,-29.28571 0,-33.11725 0.4263,-30.93651 -6.04762,-30.93651 -3.78085,0 -3.95238,-0.073 -3.95238,-1.68171 v -1.6817 l 12.16667,0.1817 c 11.66165,0.17417 12.16666,0.23706 12.16666,1.51504 0,1.16151 -0.51252,1.35966 -3.97694,1.53756 -2.18732,0.11232 -4.36232,0.52405 -4.83333,0.91496 -0.67355,0.55899 -0.85639,6.94108 -0.85639,29.89112 0,25.9937 -0.11516,29.22457 -1.05453,29.58504 -1.37877,0.52908 -2.61435,0.51356 -3.16769,-0.0398 z m -35.93598,-1.23371 c -1.00367,-0.56222 -1.98696,-1.68963 -2.1851,-2.50536 -0.19812,-0.81574 -0.27694,-14.68315 -0.17513,-30.81648 L 168.99999,115 h 1.66667 1.66667 l 0.33333,29.22084 c 0.31883,27.94988 0.38962,29.26198 1.62742,30.16667 1.72481,1.26064 7.03826,1.20567 8.89091,-0.092 l 1.48167,-1.03781 0.0102,-28.46219 c 0.005,-15.65422 0.26455,-28.86345 0.57539,-29.35386 0.31086,-0.49042 1.28126,-0.79042 2.15646,-0.66667 l 1.59128,0.22499 0.1735,29.78822 0.1735,29.78822 -1.61474,1.87844 c -1.5437,1.79581 -1.9033,1.88602 -8.1735,2.05049 -4.90988,0.12879 -7.01753,-0.0849 -8.38362,-0.85019 z m 116.82486,56.10975 c 7.29632,-1.86408 12.94709,-4.22731 16.39346,-6.85599 2.32174,-1.77088 2.47575,-1.7981 4.17527,-0.73791 4.77604,2.97939 9.91369,5.31497 15.23354,6.92519 5.08987,1.54061 7.09707,1.78199 15.19773,1.82764 8.31296,0.0469 9.77063,-0.11964 13.33333,-1.52302 5.16337,-2.03389 9.74121,-6.6074 11.29445,-11.28375 1.09204,-3.28786 1.0833,-3.49104 -0.28304,-6.57989 -3.05058,-6.89633 -7.93378,-9.65724 -12.71118,-7.18674 -2.73625,1.41496 -2.67544,3.24444 0.0877,2.63756 2.91536,-0.64032 5.27878,1.64517 5.27878,5.10474 0,2.86033 -1.24577,3.90724 -4.6494,3.90724 -2.4795,0 -5.59442,-1.52812 -13.97426,-6.8555 -8.40551,-5.3437 -12.30752,-6.67119 -18.70612,-6.36392 -3.43676,0.16504 -5.95669,0.70672 -8.04737,1.72986 -3.75648,1.83832 -3.58296,1.84244 -7.56917,-0.1799 -2.59406,-1.31604 -4.26641,-1.66056 -8,-1.64804 -5.66307,0.019 -8.91565,1.23542 -19.77515,7.39576 C 265.8944,219.40166 264.51985,220 261.67463,220 c -2.6453,0 -3.14131,-0.59233 -3.14131,-3.75138 0,-3.05438 1.73018,-4.91528 4.57,-4.91528 2.83556,0 2.97414,-1.53001 0.24112,-2.66207 -2.76551,-1.14551 -6.25212,-0.3376 -9.01607,2.08918 -5.98743,5.25703 -4.0917,16.58547 3.52267,21.05074 7.64071,4.48072 17.70509,5.13291 30.14895,1.95374 z m 143.9084,-28.42768 c 7.32345,-2.06426 12.48833,-4.40155 18.42493,-8.33796 31.22818,-20.70658 36.18841,-64.51345 10.40019,-91.85033 -7.68307,-8.144465 -18.00897,-14.266372 -29.06686,-17.232845 -7.84116,-2.103533 -21.81215,-2.11554 -29.66667,-0.02553 -24.45379,6.507027 -42.01419,26.550415 -45.37273,51.788335 -4.10883,30.876 17.93096,60.6982 49.26239,66.65729 6.97999,1.32756 19.46545,0.84818 26.01875,-0.99899 z m -53.4084,-27.39065 c -1.08428,-0.63153 -1.16667,-2.83897 -1.16667,-31.25853 0,-16.81846 0.18209,-31.05355 0.40466,-31.63354 0.33903,-0.88351 1.75165,-1.05453 8.71049,-1.05453 4.67483,0 8.89423,0.3149 9.65178,0.72033 2.60528,1.39431 3.23333,4.52423 3.22896,16.09159 -0.003,8.42491 -0.23169,11.29117 -1.02079,12.80436 -0.91153,1.74798 -0.91111,2.17207 0.004,4.10075 0.81334,1.71397 1.02079,4.92541 1.02079,15.80209 0,14.86336 -0.21555,15.73996 -3.65801,14.87596 l -1.67521,-0.42048 v -13.85988 c 0,-10.17355 -0.22586,-14.16876 -0.84918,-15.0212 -0.69458,-0.94988 -1.69589,-1.1248 -5.5,-0.96075 l -4.65082,0.20057 -0.1737,14.33333 c -0.15175,12.52193 -0.31529,14.43865 -1.29409,15.16667 -1.33003,0.98926 -1.51628,0.99622 -3.03221,0.11326 z m 14.01832,-34.9844 c 1.42428,-0.9976 1.48168,-1.4438 1.48168,-11.51833 0,-12.9203 -0.22995,-13.44387 -5.90447,-13.44387 -2.10588,0 -4.18887,0.36 -4.62887,0.8 -0.55984,0.55985 -0.8,4.22222 -0.8,12.2 0,7.97778 0.24016,11.64016 0.8,12.2 1.16016,1.16016 7.28555,0.99924 9.05166,-0.2378 z m 13.31306,34.87114 c -0.17119,-0.45834 0.69886,-9.68334 1.93346,-20.5 1.23459,-10.81667 2.80411,-24.59777 3.48781,-30.62467 1.12694,-9.93407 1.39029,-11.07718 2.81825,-12.23347 1.17663,-0.95278 2.23347,-1.18718 4.17717,-0.92647 4.82178,0.64673 4.24046,-1.78469 8.47593,35.45127 2.51446,22.10579 2.80016,29.19028 1.19025,29.51456 -2.05346,0.41364 -3.05433,-1.60606 -3.53681,-7.13711 -0.29237,-3.35174 -0.84572,-5.75049 -1.47071,-6.37547 -1.24673,-1.24673 -8.17244,-1.36655 -9.74782,-0.16864 -0.74563,0.56698 -1.34468,2.75108 -1.87422,6.83333 -0.42807,3.3 -1.11725,6.22041 -1.5315,6.48979 -1.20274,0.78212 -3.58221,0.58607 -3.92181,-0.32312 z m 16.61227,-18.88044 c 0.4434,-1.15546 -3.43348,-32.83161 -4.09985,-33.49798 -0.22897,-0.22896 -0.65653,-0.0276 -0.95013,0.44745 -0.80534,1.30307 -4.36937,31.66407 -3.86981,32.96589 0.60735,1.58274 8.31684,1.6559 8.91979,0.0846 z m 16.43518,18.10401 c -1.56706,-0.70499 -2.30622,-1.62074 -2.82962,-3.50559 -1.38574,-4.99042 -0.34828,-8.63012 2.3138,-8.11745 0.95242,0.18342 1.41512,1.08196 1.82929,3.55241 0.75867,4.52527 1.32236,5.01372 5.786,5.01372 5.64251,0 6.02169,-0.64516 6.02169,-10.24572 0,-9.48272 -0.52036,-10.73628 -7.59866,-18.30511 -2.71455,-2.90268 -5.79035,-6.56929 -6.83511,-8.14803 -1.82977,-2.76498 -1.89956,-3.1717 -1.89956,-11.07063 0,-8.07308 0.0287,-8.22886 1.84849,-10.04869 1.78689,-1.78689 2.08314,-1.84848 8.89105,-1.84848 6.89,0 7.07743,0.0405 8.65151,1.8705 1.31264,1.52603 1.60895,2.60418 1.60895,5.85426 0,4.33392 -0.79765,5.29896 -3.28124,3.96978 -1.03861,-0.55584 -1.38543,-1.39122 -1.38543,-3.33705 0,-3.67406 -1.29316,-4.69083 -5.96598,-4.69083 -5.15797,0 -5.70068,0.72377 -5.70068,7.60246 0,2.96865 0.2382,6.2524 0.52935,7.29722 0.29115,1.04482 3.24319,4.7484 6.56009,8.23018 8.56725,8.99307 9.22916,10.64113 9.23738,22.99964 0.006,9.39744 -0.0589,9.87228 -1.60165,11.66666 -1.52324,1.77173 -1.93692,1.87961 -7.83333,2.04277 -4.29514,0.11885 -6.88282,-0.12361 -8.34634,-0.78202 z m 72.89115,29.05727 c -1.00874,-1.11466 -1.10332,-6.15956 -1.10332,-58.85166 0,-64.932705 -0.35316,-60.595852 4.93448,-60.595852 5.47562,0 5.06552,-4.898426 5.06552,60.504872 0,65.09125 0.40512,60.1618 -4.9443,60.1618 -1.91346,0 -3.21137,-0.40036 -3.95238,-1.21916 z M 93.76999,205.44751 c -0.833227,-0.92071 -1.103327,-2.52553 -1.103327,-6.55555 0,-2.93502 -0.188033,-5.52444 -0.417853,-5.75426 -0.229827,-0.22982 -1.264927,0.0202 -2.300227,0.55556 -2.52846,1.30751 -5.4932,1.22805 -7.210519,-0.19326 -1.372807,-1.13618 -1.413927,-1.70666 -1.573854,-21.83333 L 80.999997,151 l -15.888664,-0.17886 -15.888664,-0.17886 -2.540605,2.0122 c -5.236146,4.1471 -12.302463,1.7902 -13.129788,-4.37931 -1.013988,-7.56149 7.671665,-11.82535 13.231187,-6.49529 l 1.968024,1.88679 14.916533,0.21209 c 9.991837,0.14208 15.37029,-0.0307 16.290924,-0.52345 1.343046,-0.71878 1.374386,-1.21047 1.374386,-21.56376 0,-23.943135 -0.03185,-23.791548 4.99846,-23.791548 1.607567,0 3.10826,0.3 3.334873,0.666667 0.226614,0.366666 0.99432,0.666666 1.706014,0.666666 1.178519,0 1.293986,-0.501393 1.293986,-5.619047 0,-4.21934 0.26096,-5.880013 1.04762,-6.666666 1.52334,-1.52334 5.977007,-1.356327 7.619047,0.285713 1.31273,1.312727 1.33333,2.22222 1.33333,58.851665 0,64.80522 0.35274,60.48167 -4.934477,60.48167 -1.922967,0 -3.220067,-0.39911 -3.962193,-1.21916 z M 524.49998,193.9466 c -1.09359,-0.63696 -1.16667,-3.613 -1.16667,-47.51306 0,-35.5372 0.19296,-47.026498 0.8,-47.633538 0.44,-0.44 2.04351,-0.8 3.56334,-0.8 5.05454,0 4.97,-0.40094 4.97,23.568998 v 21.13067 l 1.80379,0.6858 c 1.09585,0.41664 7.33739,0.60641 15.90297,0.4835 l 14.09919,-0.2023 2.76561,-2.5 c 2.38694,-2.1577 3.20384,-2.5 5.96624,-2.5 2.74524,0 3.50381,0.3128 5.33141,2.19841 1.78078,1.83728 2.13078,2.71162 2.13078,5.32281 0,6.56545 -6.69596,9.96159 -12.21328,6.19447 l -2.54661,-1.73878 -16.45339,0.17821 -16.45338,0.17821 -0.16421,20.66667 c -0.15993,20.12667 -0.20105,20.69715 -1.57386,21.83333 -1.55104,1.28369 -4.9404,1.50754 -6.76193,0.4466 z"
       id="path4552"
       inkscape:connector-curvature="0" />
    <path
       style="fill:#474448;stroke-width:0.66666669"
       d="m 267.66666,286.66667 c -20.9,-0.19242 -37.75656,-0.42114 -37.45901,-0.50826 0.29755,-0.0871 7.15995,-2.11148 15.24979,-4.49859 8.08984,-2.3871 16.84639,-4.66703 19.459,-5.06651 2.61262,-0.39947 5.27212,-1.19008 5.91,-1.75691 0.63788,-0.56682 7.53788,-2.94366 15.33334,-5.28185 13.85528,-4.15581 14.3457,-4.25127 21.84021,-4.25127 7.49451,0 7.98492,0.0955 21.84021,4.25127 7.79545,2.33819 14.69545,4.70123 15.33333,5.25118 0.63789,0.54996 3.29545,1.34 5.9057,1.75564 2.61024,0.41565 11.3668,2.70938 19.459,5.09718 8.09221,2.3878 14.95655,4.34605 15.2541,4.35166 0.29754,0.005 0.091,0.30102 -0.45901,0.65646 -1.03058,0.66602 -45.32977,0.66602 -117.66666,0 z m 122.63042,0.289 c -0.48328,-0.21531 -0.50604,-1.76749 -0.0728,-4.96774 l 0.63007,-4.65459 h 12.22413 12.22414 l 1.10126,1.68073 c 1.07222,1.63641 1.02864,6.43996 -0.0684,7.541 -0.50355,0.50538 -24.95865,0.88162 -26.03834,0.4006 z m -192.51931,-0.73344 c -0.7678,-0.7678 -0.48285,-7.25048 0.35556,-8.08889 0.56695,-0.56695 4.54814,-0.8 13.66666,-0.8 11.79099,0 12.87073,0.0975 12.91533,1.16667 0.0268,0.64166 0.27299,2.74166 0.54715,4.66666 l 0.49848,3.5 h -13.76936 c -7.57316,0 -13.96938,-0.2 -14.21382,-0.44444 z m -25.64444,-13.02222 c -0.44,-0.44 -0.8,-2.37945 -0.8,-4.30988 0,-2.80192 0.26316,-3.65072 1.30472,-4.20814 0.85967,-0.46008 9.78532,-0.63864 26.16666,-0.52346 l 24.86195,0.17481 0.19587,4.83333 0.19587,4.83334 h -25.56253 c -18.99309,0 -25.76814,-0.2056 -26.36254,-0.8 z m 219.19999,-3.14548 c 0,-6.67318 -3.06882,-6.05452 30.03352,-6.05452 h 29.2242 l 1.03781,1.48167 c 1.43301,2.04592 1.33527,6.04247 -0.18136,7.415 -1.09571,0.99161 -4.201,1.10333 -30.66667,1.10333 h -29.4475 z M 108.65288,258.50001 c -1.21602,-0.825 -2.58756,-2.55001 -3.04786,-3.83334 -1.22442,-3.41369 -1.22442,-212.586317 0,-216.000003 0.4603,-1.283333 1.83184,-3.008333 3.04786,-3.833333 l 2.21096,-1.5 195.73474,0.0098 c 154.01694,0.0077 196.07626,0.185345 197.33713,0.833333 0.88132,0.452928 2.23132,1.670471 3,2.705651 l 1.3976,1.882146 0.19644,106.451186 c 0.13192,71.48405 -0.0287,107.23076 -0.48878,108.82445 -0.37688,1.30529 -1.46436,3.10529 -2.41664,4 l -1.7314,1.62674 -55.94647,0.17783 c -44.80457,0.14242 -55.94469,0.01 -55.93752,-0.66666 0.0213,-2.00407 1.98542,-24.46394 2.39018,-27.33134 0.36384,-2.57751 0.24534,-3.23019 -0.64881,-3.57331 -1.04048,-0.39927 -77.3331,22.83366 -81.28968,24.75466 -1.26238,0.61291 -2.38062,0.71611 -3.43126,0.31666 -0.85722,-0.32591 -2.41451,-0.58285 -3.46064,-0.57097 -1.04614,0.0119 -19.87563,-5.57076 -41.84332,-12.40588 -21.96769,-6.83512 -40.38985,-12.25534 -40.93815,-12.04494 -0.86156,0.33061 -0.92646,2.07689 -0.47812,12.86324 0.28532,6.8644 0.55748,13.83071 0.60481,15.48071 l 0.086,3 -12.95185,0.18148 c -8.17906,0.1146 -13.20299,-0.0696 -13.63333,-0.5 -0.37482,-0.37481 -1.64248,-0.68148 -2.81703,-0.68148 -1.17455,0 -5.07395,-0.5911 -8.66532,-1.31355 -17.48188,-3.51672 -28.07175,-13.39269 -33.2887,-31.0446 -1.46137,-4.94466 -1.82921,-7.7861 -2.13275,-16.47518 -0.20917,-5.98754 -0.11129,-10.48958 0.22776,-10.47576 0.327,0.0133 2.48678,1.46474 4.7995,3.22533 17.50737,13.32776 41.5379,17.54213 62.43423,10.94944 23.56372,-7.43424 41.14133,-25.95069 47.47823,-50.01411 1.49007,-5.65832 1.71652,-7.88147 1.71652,-16.85157 0,-8.9701 -0.22645,-11.19325 -1.71652,-16.85157 -8.63778,-32.800655 -38.58401,-54.873962 -71.78407,-52.911895 -16.39944,0.96918 -31.41211,7.260913 -43.17914,18.096167 -27.80594,25.604108 -30.6382,67.449638 -6.53996,96.625158 l 2.71844,3.29119 -0.22272,7.77812 c -0.55025,19.21622 4.05133,34.81023 13.23821,44.86213 4.47,4.8909 8.99879,7.68275 16.62771,10.25047 l 6.35746,2.13977 -35.40141,0.0269 -35.40141,0.0269 -2.21096,-1.5 z m 179.34711,-24.73508 c 7.29632,-1.86408 12.94709,-4.22731 16.39346,-6.85599 2.32174,-1.77088 2.47575,-1.7981 4.17527,-0.73791 4.77604,2.97939 9.91369,5.31497 15.23354,6.92519 5.08987,1.54061 7.09707,1.78199 15.19773,1.82764 8.31296,0.0469 9.77063,-0.11964 13.33333,-1.52302 5.16337,-2.03389 9.74121,-6.6074 11.29445,-11.28375 1.09204,-3.28786 1.0833,-3.49104 -0.28304,-6.57989 -3.05058,-6.89633 -7.93378,-9.65724 -12.71118,-7.18674 -2.73625,1.41496 -2.67544,3.24444 0.0877,2.63756 2.91536,-0.64032 5.27878,1.64517 5.27878,5.10474 0,2.86033 -1.24577,3.90724 -4.6494,3.90724 -2.4795,0 -5.59442,-1.52812 -13.97426,-6.8555 -8.40551,-5.3437 -12.30752,-6.67119 -18.70612,-6.36392 -3.43676,0.16504 -5.95669,0.70672 -8.04737,1.72986 -3.75648,1.83832 -3.58296,1.84244 -7.56917,-0.1799 -2.59406,-1.31604 -4.26641,-1.66056 -8,-1.64804 -5.66307,0.019 -8.91565,1.23542 -19.77515,7.39576 C 265.8944,219.40166 264.51985,220 261.67463,220 c -2.6453,0 -3.14131,-0.59233 -3.14131,-3.75138 0,-3.05438 1.73018,-4.91528 4.57,-4.91528 2.83556,0 2.97414,-1.53001 0.24112,-2.66207 -2.76551,-1.14551 -6.25212,-0.3376 -9.01607,2.08918 -5.98743,5.25703 -4.0917,16.58547 3.52267,21.05074 7.64071,4.48072 17.70509,5.13291 30.14895,1.95374 z m 143.9084,-28.42768 c 7.32345,-2.06426 12.48833,-4.40155 18.42493,-8.33796 31.22818,-20.70658 36.18841,-64.51345 10.40019,-91.85033 -7.68307,-8.144465 -18.00897,-14.266372 -29.06686,-17.232845 -7.84116,-2.103533 -21.81215,-2.11554 -29.66667,-0.02553 -24.45379,6.507027 -42.01419,26.550415 -45.37273,51.788335 -4.10883,30.876 17.93096,60.6982 49.26239,66.65729 6.97999,1.32756 19.46545,0.84818 26.01875,-0.99899 z m -53.4084,-27.39065 c -1.08428,-0.63153 -1.16667,-2.83897 -1.16667,-31.25853 0,-16.81846 0.18209,-31.05355 0.40466,-31.63354 0.33903,-0.88351 1.75165,-1.05453 8.71049,-1.05453 4.67483,0 8.89423,0.3149 9.65178,0.72033 2.60528,1.39431 3.23333,4.52423 3.22896,16.09159 -0.003,8.42491 -0.23169,11.29117 -1.02079,12.80436 -0.91153,1.74798 -0.91111,2.17207 0.004,4.10075 0.81334,1.71397 1.02079,4.92541 1.02079,15.80209 0,14.86336 -0.21555,15.73996 -3.65801,14.87596 l -1.67521,-0.42048 v -13.85988 c 0,-10.17355 -0.22586,-14.16876 -0.84918,-15.0212 -0.69458,-0.94988 -1.69589,-1.1248 -5.5,-0.96075 l -4.65082,0.20057 -0.1737,14.33333 c -0.15175,12.52193 -0.31529,14.43865 -1.29409,15.16667 -1.33003,0.98926 -1.51628,0.99622 -3.03221,0.11326 z m 14.01832,-34.9844 c 1.42428,-0.9976 1.48168,-1.4438 1.48168,-11.51833 0,-12.9203 -0.22995,-13.44387 -5.90447,-13.44387 -2.10588,0 -4.18887,0.36 -4.62887,0.8 -0.55984,0.55985 -0.8,4.22222 -0.8,12.2 0,7.97778 0.24016,11.64016 0.8,12.2 1.16016,1.16016 7.28555,0.99924 9.05166,-0.2378 z m 13.31306,34.87114 c -0.17119,-0.45834 0.69886,-9.68334 1.93346,-20.5 1.23459,-10.81667 2.80411,-24.59777 3.48781,-30.62467 1.12694,-9.93407 1.39029,-11.07718 2.81825,-12.23347 1.17663,-0.95278 2.23347,-1.18718 4.17717,-0.92647 4.82178,0.64673 4.24046,-1.78469 8.47593,35.45127 2.51446,22.10579 2.80016,29.19028 1.19025,29.51456 -2.05346,0.41364 -3.05433,-1.60606 -3.53681,-7.13711 -0.29237,-3.35174 -0.84572,-5.75049 -1.47071,-6.37547 -1.24673,-1.24673 -8.17244,-1.36655 -9.74782,-0.16864 -0.74563,0.56698 -1.34468,2.75108 -1.87422,6.83333 -0.42807,3.3 -1.11725,6.22041 -1.5315,6.48979 -1.20274,0.78212 -3.58221,0.58607 -3.92181,-0.32312 z m 16.61227,-18.88044 c 0.4434,-1.15546 -3.43348,-32.83161 -4.09985,-33.49798 -0.22897,-0.22896 -0.65653,-0.0276 -0.95013,0.44745 -0.80534,1.30307 -4.36937,31.66407 -3.86981,32.96589 0.60735,1.58274 8.31684,1.6559 8.91979,0.0846 z m 16.43518,18.10401 c -1.56706,-0.70499 -2.30622,-1.62074 -2.82962,-3.50559 -1.38574,-4.99042 -0.34828,-8.63012 2.3138,-8.11745 0.95242,0.18342 1.41512,1.08196 1.82929,3.55241 0.75867,4.52527 1.32236,5.01372 5.786,5.01372 5.64251,0 6.02169,-0.64516 6.02169,-10.24572 0,-9.48272 -0.52036,-10.73628 -7.59866,-18.30511 -2.71455,-2.90268 -5.79035,-6.56929 -6.83511,-8.14803 -1.82977,-2.76498 -1.89956,-3.1717 -1.89956,-11.07063 0,-8.07308 0.0287,-8.22886 1.84849,-10.04869 1.78689,-1.78689 2.08314,-1.84848 8.89105,-1.84848 6.89,0 7.07743,0.0405 8.65151,1.8705 1.31264,1.52603 1.60895,2.60418 1.60895,5.85426 0,4.33392 -0.79765,5.29896 -3.28124,3.96978 -1.03861,-0.55584 -1.38543,-1.39122 -1.38543,-3.33705 0,-3.67406 -1.29316,-4.69083 -5.96598,-4.69083 -5.15797,0 -5.70068,0.72377 -5.70068,7.60246 0,2.96865 0.2382,6.2524 0.52935,7.29722 0.29115,1.04482 3.24319,4.7484 6.56009,8.23018 8.56725,8.99307 9.22916,10.64113 9.23738,22.99964 0.006,9.39744 -0.0589,9.87228 -1.60165,11.66666 -1.52324,1.77173 -1.93692,1.87961 -7.83333,2.04277 -4.29514,0.11885 -6.88282,-0.12361 -8.34634,-0.78202 z m -252.76348,33.55293 c -21.06773,-3.24236 -40.81999,-18.48006 -49.25966,-38.00089 -7.06992,-16.35263 -7.30136,-34.54484 -0.64713,-50.86641 6.40604,-15.7128 20.29633,-29.476732 36.01833,-35.690692 28.62281,-11.312873 61.6886,-0.825766 78.29088,24.830652 7.08858,10.95436 10.2675,21.62953 10.35826,34.78417 0.0613,8.88361 -0.58772,13.40845 -3.01204,21 -4.13388,12.94487 -14.05556,26.05251 -25.40405,33.56152 -5.75253,3.80631 -14.21484,7.56845 -20.53094,9.12757 -6.51399,1.60796 -19.43538,2.23571 -25.81365,1.25408 z m 26.18509,-5.58249 c 20.91789,-6.18975 36.41474,-22.14479 42.11547,-43.36068 2.50936,-9.33885 2.50846,-20.37783 -0.003,-29.96503 -6.79682,-25.95198 -28.99629,-44.141585 -55.54404,-45.511165 -8.38709,-0.43268 -15.17677,0.419133 -22.08499,2.77072 -20.23308,6.887434 -34.66055,22.340425 -40.18289,43.039145 -2.15215,8.06662 -2.15215,21.26604 0,29.33266 6.19246,23.21043 23.81114,39.94878 47.39843,45.03011 7.02359,1.51307 20.88381,0.85887 28.30044,-1.33576 z m -5.18932,-26.13846 c -0.24445,-0.24444 -0.44445,-13.42301 -0.44445,-29.28571 0,-33.11725 0.4263,-30.93651 -6.04762,-30.93651 -3.78085,0 -3.95238,-0.073 -3.95238,-1.68171 v -1.6817 l 12.16667,0.1817 c 11.66165,0.17417 12.16666,0.23706 12.16666,1.51504 0,1.16151 -0.51252,1.35966 -3.97694,1.53756 -2.18732,0.11232 -4.36232,0.52405 -4.83333,0.91496 -0.67355,0.55899 -0.85639,6.94108 -0.85639,29.89112 0,25.9937 -0.11516,29.22457 -1.05453,29.58504 -1.37877,0.52908 -2.61435,0.51356 -3.16769,-0.0398 z m -35.93598,-1.23371 c -1.00367,-0.56222 -1.98696,-1.68963 -2.1851,-2.50536 -0.19812,-0.81574 -0.27694,-14.68315 -0.17513,-30.81648 L 168.99999,115 h 1.66667 1.66667 l 0.33333,29.22084 c 0.31883,27.94988 0.38962,29.26198 1.62742,30.16667 1.72481,1.26064 7.03826,1.20567 8.89091,-0.092 l 1.48167,-1.03781 0.0102,-28.46219 c 0.005,-15.65422 0.26455,-28.86345 0.57539,-29.35386 0.31086,-0.49042 1.28126,-0.79042 2.15646,-0.66667 l 1.59128,0.22499 0.1735,29.78822 0.1735,29.78822 -1.61474,1.87844 c -1.5437,1.79581 -1.9033,1.88602 -8.1735,2.05049 -4.90988,0.12879 -7.01753,-0.0849 -8.38362,-0.85019 z m 340.59484,28.459 c -1.00874,-1.11466 -1.10332,-6.15956 -1.10332,-58.85166 0,-64.932705 -0.35316,-60.595852 4.93448,-60.595852 5.47562,0 5.06552,-4.898426 5.06552,60.504872 0,65.09125 0.40512,60.1618 -4.9443,60.1618 -1.91346,0 -3.21137,-0.40036 -3.95238,-1.21916 z M 93.76999,205.44751 c -0.833227,-0.92071 -1.103327,-2.52553 -1.103327,-6.55555 0,-2.93502 -0.188033,-5.52444 -0.417853,-5.75426 -0.229827,-0.22982 -1.264927,0.0202 -2.300227,0.55556 -2.52846,1.30751 -5.4932,1.22805 -7.210519,-0.19326 -1.372807,-1.13618 -1.413927,-1.70666 -1.573854,-21.83333 L 80.999997,151 l -15.999999,-0.17878 -16,-0.1788 -0.03276,-3.48787 -0.03276,-3.48788 14.82504,0.21209 c 9.92527,0.142 15.279283,-0.031 16.19943,-0.52345 1.343042,-0.71878 1.374382,-1.21047 1.374382,-21.56376 0,-23.943135 -0.03185,-23.791548 4.99846,-23.791548 1.607567,0 3.10826,0.3 3.334873,0.666667 0.226614,0.366666 0.99432,0.666666 1.706014,0.666666 1.178519,0 1.293986,-0.501393 1.293986,-5.619047 0,-4.21934 0.26096,-5.880013 1.04762,-6.666666 1.52334,-1.52334 5.977007,-1.356327 7.619047,0.285713 1.31273,1.312727 1.33333,2.22222 1.33333,58.851665 0,64.80522 0.35274,60.48167 -4.934477,60.48167 -1.922967,0 -3.220067,-0.39911 -3.962193,-1.21916 z M 524.49998,193.9466 c -1.09359,-0.63696 -1.16667,-3.613 -1.16667,-47.51306 0,-35.5372 0.19296,-47.026498 0.8,-47.633538 0.44,-0.44 2.04351,-0.8 3.56334,-0.8 5.05454,0 4.97,-0.40094 4.97,23.568998 v 21.13067 l 1.82836,0.69515 c 1.13262,0.43062 7.34815,0.6146 16.33399,0.4835 l 14.50563,-0.21165 -6.6e-4,2.44547 c -3.6e-4,1.34502 0.1794,2.91471 0.39948,3.48821 0.35524,0.92576 -1.45833,1.06275 -16.16667,1.22119 L 532.99998,151 l -0.16421,20.66667 c -0.15993,20.12667 -0.20105,20.69715 -1.57386,21.83333 -1.55104,1.28369 -4.9404,1.50754 -6.76193,0.4466 z"
       id="path4550"
       inkscape:connector-curvature="0" />
    <path
       style="fill:#353236;stroke-width:0.66666669"
       d="m 305.99999,282.33334 v -3.66667 l 23.83333,-0.0969 c 13.10833,-0.0533 24.78001,-0.0331 25.93705,0.0449 1.15706,0.078 7.45706,1.75074 14,3.71714 l 11.89628,3.57527 -37.83333,0.0465 -37.83333,0.0464 z m 84.91666,1.58333 c 0.22917,-1.14583 0.41667,-2.79583 0.41667,-3.66666 v -1.58334 h 11.92867 c 12.87803,0 12.73799,-0.0403 12.73799,3.66667 0,3.71658 0.17908,3.66667 -13.15466,3.66667 h -12.34533 z m -84.78483,-14.08333 0.2015,-3.5 4.1482,-0.198 c 3.41648,-0.16307 6.18002,0.40538 15.66667,3.22259 6.33516,1.88133 11.64346,3.54543 11.79624,3.698 0.15278,0.15258 -6.9879,0.27741 -15.86817,0.27741 h -16.14595 z m 85.87727,0.66667 c 0.005,-1.19167 0.19,-2.84167 0.41109,-3.66667 l 0.40198,-1.5 h 28.45558 c 21.24322,0 28.65834,0.20277 29.25558,0.8 0.85392,0.85393 1.06224,3.74088 0.39534,5.47881 -0.3605,0.93942 -3.59854,1.05452 -29.66667,1.05452 h -29.262 l 0.009,-2.16666 z m 0.9522,-16.66667 c 0.23837,-3.025 0.7795,-9.1 1.2025,-13.5 1.09329,-11.37216 1.06161,-12.59106 -0.33448,-12.8675 -0.64387,-0.1275 -19.6354,5.50886 -42.20338,12.52525 -22.57744,7.01932 -41.84078,12.66377 -42.82933,12.54965 l -1.79661,-0.2074 -0.18076,-13.16667 C 306.71842,231.82364 306.8998,226 307.22932,226 c 0.32497,0 1.36245,0.60694 2.3055,1.34874 8.13632,6.40004 28.63103,10.42481 39.09185,7.67691 5.3301,-1.40015 8.63808,-3.05964 11.19417,-5.61573 2.01842,-2.01842 5.51248,-8.6423 5.51248,-10.4503 0,-1.9207 -3.26289,-7.42632 -5.63608,-9.51 -3.84216,-3.37346 -7.67768,-3.5914 -10.86392,-0.61732 -2.48596,2.32044 -1.97592,3.39046 1.37647,2.88774 3.20698,-0.48092 4.65869,0.49986 5.45314,3.68412 0.57506,2.30493 -1.08364,3.92918 -4.01253,3.92918 -2.88427,0 -4.72421,-0.82338 -11.52211,-5.1562 -10.92085,-6.96067 -12.9884,-7.76061 -20.1283,-7.78769 -5.24844,-0.0199 -6.84014,0.23018 -9.29189,1.45993 -1.62721,0.81618 -3.20331,1.48396 -3.50247,1.48396 -0.29915,0 -0.4678,-39.375 -0.37478,-87.5 l 0.16914,-87.500006 96.99999,-0.166859 c 91.25143,-0.156971 97.13773,-0.09771 99.32406,1 1.27823,0.641772 2.69881,1.916859 3.15684,2.833526 1.05575,2.112899 1.25358,214.191439 0.20239,216.956299 -0.35754,0.94036 -1.63254,2.30878 -2.83334,3.04091 -2.13505,1.30174 -3.38884,1.3312 -56.75267,1.33364 l -54.56938,0.003 0.43341,-5.5 z m 36.03869,-46.92646 c 12.09257,-2.29671 21.75216,-7.53511 31.06196,-16.84492 16.79683,-16.79682 22.48809,-39.44078 15.492,-61.6383 C 469.2619,108.46 453.02917,92.725815 433.19232,87.363075 c -23.27825,-6.293093 -48.16687,1.489387 -63.58289,19.881875 -15.89548,18.96454 -18.81298,46.18898 -7.27831,67.91721 6.7933,12.79678 15.36647,20.96236 28.55006,27.19276 12.41744,5.86832 23.94204,7.24453 38.1188,4.55196 z m -22.09742,-29.92036 c -0.2139,-0.55741 0.10256,-5.13241 0.70324,-10.16666 0.60069,-5.03426 1.3722,-11.70319 1.71448,-14.81986 3.591,-32.69898 4.02642,-35.64824 5.43788,-36.83333 0.76425,-0.64167 2.2563,-1.16667 3.31568,-1.16667 1.96338,0 4.58518,1.99386 4.60226,3.5 0.005,0.45834 0.90973,8.78334 2.01006,18.5 2.57298,22.72107 4.02916,36.3982 4.18775,39.33334 0.11181,2.06943 -0.0597,2.33333 -1.51651,2.33333 -1.57454,0 -1.67477,-0.26029 -2.41933,-6.28329 -0.57809,-4.67641 -1.08569,-6.5092 -1.98483,-7.16666 -1.73305,-1.26724 -9.8749,-1.18272 -10.95081,0.11367 -0.45511,0.54837 -1.16685,3.47337 -1.58163,6.5 -0.41478,3.02662 -0.99686,5.87795 -1.2935,6.33628 -0.73245,1.1317 -1.75305,1.04906 -2.22474,-0.18015 z m 15.73392,-17.2835 c 0.62625,-0.75458 0.48909,-3.46658 -0.63218,-12.5 -2.7482,-22.1407 -2.98836,-23.51502 -4.14815,-23.73837 -0.59157,-0.11393 -1.2392,0.33492 -1.43917,0.99744 -0.19998,0.66252 -1.29466,8.65088 -2.43264,17.75191 -1.61166,12.88936 -1.89427,16.75793 -1.27841,17.5 1.09683,1.32159 8.83171,1.31304 9.93055,-0.011 z M 378.82673,146.16667 378.99999,115 h 8.22696 c 11.21864,0 10.77303,-0.61464 10.77303,14.85986 0,7.51852 -0.29012,12.51448 -0.81028,13.95296 -0.63594,1.75865 -0.63594,2.51998 0,3.53828 0.57062,0.91372 0.81028,5.53962 0.81028,15.63986 v 14.34238 h -1.66666 -1.66667 v -14.25171 c 0,-16.72443 0.27272,-16.08163 -6.82287,-16.08163 -6.65067,0 -6.51046,-0.3545 -6.51046,16.46076 0,13.45088 -0.0407,13.87258 -1.33993,13.87258 -1.32548,0 -1.33806,-0.33587 -1.16666,-31.16667 z m 14.62076,-2.60333 c 1.09147,-0.98776 1.21916,-2.30946 1.21916,-12.61904 0,-13.90254 0.15133,-13.61096 -7.06412,-13.61096 -4.7987,0 -4.99258,0.0623 -5.66104,1.82053 -0.41208,1.08383 -0.60773,6.35474 -0.4835,13.02551 0.16897,9.07346 0.3989,11.32502 1.20866,11.83593 1.75437,1.10691 9.4131,0.78583 10.78084,-0.45197 z m 45.43328,32.97751 c -1.95383,-0.9446 -3.01107,-3.73503 -2.75694,-7.27655 0.16013,-2.23169 0.50477,-2.97553 1.46293,-3.15748 1.58164,-0.30032 2.38995,0.95318 2.40302,3.72652 0.0156,3.31274 1.96564,4.8354 6.17687,4.82312 1.925,-0.005 3.83009,-0.23061 4.23353,-0.5 1.70988,-1.14171 2.26647,-3.73718 2.26647,-10.56881 0,-8.9941 -0.77945,-10.76309 -8.37271,-19.00231 -7.77982,-8.44166 -8.46846,-10.06607 -8.1863,-19.31013 0.21825,-7.15004 0.28724,-7.44627 2.09618,-9.00095 1.68707,-1.44993 2.47916,-1.60759 8.07677,-1.60759 5.26923,0 6.47145,0.20861 7.96282,1.38172 1.57563,1.23939 1.75657,1.82789 1.75657,5.71303 0,4.10554 -0.0779,4.32021 -1.49403,4.11828 -1.24038,-0.17686 -1.57421,-0.77628 -1.96633,-3.53069 -0.58304,-4.09557 -1.74494,-5.01567 -6.33372,-5.01567 -5.37443,0 -6.20592,1.15537 -6.20592,8.62326 0,3.27614 0.28808,6.71432 0.64019,7.64042 0.3521,0.92609 3.34489,4.58601 6.65064,8.13315 8.47761,9.09663 8.70917,9.69307 8.70917,22.43193 v 10.4078 l -1.75657,1.38172 c -1.49745,1.17789 -2.65301,1.37506 -7.83333,1.3366 -3.34222,-0.0248 -6.73041,-0.36114 -7.52931,-0.74737 z"
       id="path4548"
       inkscape:connector-curvature="0" />
  </g>
</svg>
