<?xml version="1.0" encoding="UTF-8" standalone="no"?>
<!-- Created with Inkscape (http://www.inkscape.org/) -->

<svg
   xmlns:dc="http://purl.org/dc/elements/1.1/"
   xmlns:cc="http://creativecommons.org/ns#"
   xmlns:rdf="http://www.w3.org/1999/02/22-rdf-syntax-ns#"
   xmlns:svg="http://www.w3.org/2000/svg"
   xmlns="http://www.w3.org/2000/svg"
   xmlns:sodipodi="http://sodipodi.sourceforge.net/DTD/sodipodi-0.dtd"
   xmlns:inkscape="http://www.inkscape.org/namespaces/inkscape"
   version="1.1"
   id="svg149"
   width="1698.6667"
   height="625.33331"
   viewBox="0 0 1698.6667 625.33331"
   sodipodi:docname="ieee_logo.svg"
   inkscape:label="top"
   inkscape:version="0.92.1 r15371"
   inkscape:export-filename="/home/qaute/now/ras/site/resources/meta/ieee_logo.svg.png"
   inkscape:export-xdpi="15.372056"
   inkscape:export-ydpi="15.372056">
  <metadata
     id="metadata155">
    <rdf:RDF>
      <cc:Work
         rdf:about="">
        <dc:format>image/svg+xml</dc:format>
        <dc:type
           rdf:resource="http://purl.org/dc/dcmitype/StillImage" />
        <dc:title></dc:title>
      </cc:Work>
    </rdf:RDF>
  </metadata>
  <defs
     id="defs153" />
  <sodipodi:namedview
     pagecolor="#ffffff"
     bordercolor="#666666"
     borderopacity="1"
     objecttolerance="10"
     gridtolerance="10"
     guidetolerance="10"
     inkscape:pageopacity="0"
     inkscape:pageshadow="2"
     inkscape:window-width="1920"
     inkscape:window-height="1080"
     id="namedview151"
     showgrid="false"
     inkscape:zoom="0.72264756"
     inkscape:cx="818.01599"
     inkscape:cy="388.40352"
     inkscape:window-x="1920"
     inkscape:window-y="0"
     inkscape:window-maximized="1"
     inkscape:current-layer="layer1" />
  <g
     inkscape:groupmode="layer"
     id="layer1"
     inkscape:label="bottom"
     style="display:inline">
    <path
       style="fill:#000000;stroke-width:1.33333337"
       d="m 1192.6475,623.66641 c 0.5596,-0.9167 6.295,-10.0169 12.7454,-20.2227 6.4504,-10.2057 11.7378,-19.2057 11.7499,-20 0.073,-4.8 -12.6641,-83.2045 -13.439,-82.7256 -0.521,0.3221 -1.3416,2.6873 -1.8235,5.2562 -0.9671,5.155 -2.2429,5.7586 -13.4086,6.3437 l -6.6492,0.3484 -5.5882,23.3333 c -5.9127,24.6881 -6.7773,31.8029 -4.1801,34.4 1.9271,1.9272 7.6434,2.0752 12.266,0.3177 4.6624,-1.7727 5.239,-0.025 2.4609,7.4572 -2.5849,6.9619 -4.6174,8.1229 -14.6333,8.3589 -7.8201,0.1843 -16.0347,-3.37 -18.4115,-7.9661 -3.2014,-6.1909 -2.2611,-16.5688 3.8268,-42.2343 l 5.7719,-24.3334 h -5.5515 c -3.0534,0 -5.8817,-0.3301 -6.2852,-0.7336 -0.4035,-0.4035 -0.018,-3.5535 0.8577,-7 1.5872,-6.2504 1.6079,-6.2681 8.1161,-6.933 l 6.5248,-0.6667 2.062,-9.5653 c 1.1341,-5.261 2.5242,-10.0232 3.0891,-10.5827 1.5227,-1.5082 18.3427,-5.5382 18.9582,-4.5423 0.2909,0.4706 -0.8738,6.3685 -2.5882,13.1063 l -3.1172,12.2507 9.5267,0.105 c 10.5524,0.1164 26.1225,-0.1841 28.0604,-0.5414 1.792,-0.3305 2.8382,5.7016 6.2637,36.1139 l 3.0424,27.0108 6.3705,-11.0108 c 3.5037,-6.056 11.3398,-20.1481 17.4134,-31.3159 l 11.043,-20.3051 9,-0.028 c 5.1821,-0.016 9,0.5423 9,1.3168 0,0.7398 -10.6938,19.1898 -23.764,41 -13.0702,21.8102 -29.6181,50.0049 -36.7731,62.6549 l -13.0091,23 h -9.9723 c -7.6315,0 -9.7334,-0.3912 -8.9549,-1.6666 z m -418.85994,-37.4625 c -6.86518,-1.7864 -17.28721,-6.6388 -18.51061,-8.6183 -0.65797,-1.0646 2.80774,-16.292 3.98036,-17.4887 0.30694,-0.3132 2.2018,1.0047 4.21082,2.9286 8.69271,8.3243 25.72444,11.8654 37.7489,7.8484 11.4599,-3.8284 17.689,-16.976 12.6551,-26.7107 -2.2853,-4.4191 -10.6668,-10.4289 -23.41791,-16.791 -14.07582,-7.0232 -20.00872,-15.4295 -19.98697,-28.3193 0.0253,-15.0128 8.54727,-26.7298 23.54436,-32.3718 6.64582,-2.5002 9.81072,-2.8512 21.77592,-2.4152 11.8826,0.4331 15.2604,1.084 22.3334,4.3041 4.5833,2.0867 8.3333,4.4092 8.3333,5.1613 0,2.9792 -4.557,15.6018 -5.6326,15.6018 -0.6301,0 -2.4705,-1.2509 -4.0898,-2.7798 -4.9539,-4.6772 -10.4557,-6.8752 -18.884,-7.5444 -16.2197,-1.2877 -25.90902,4.6762 -27.0601,16.6558 -0.82867,8.6241 2.43303,12.3815 18.071,20.8176 21.2758,11.4775 26.9406,18.5502 26.9158,33.6051 -0.024,14.5966 -8.4959,27.2408 -22.5688,33.6836 -8.7916,4.0249 -28.60168,5.2476 -39.41817,2.4329 z m 92.66807,-3.1199 c -11.4899,-5.8781 -15.9799,-14.6192 -15.994,-31.1375 -0.021,-24.1493 13.818,-47.7749 31.5161,-53.8053 9.6977,-3.3043 24.9718,-2.8268 33.1432,1.0363 12.8438,6.0719 18,14.8086 18,30.4993 0,23.7667 -11.119,45.0495 -27.8395,53.2876 -4.8131,2.3715 -8.9309,3.1267 -18.8272,3.4529 -11.6944,0.3855 -13.2294,0.1296 -19.9986,-3.3333 z m 28.8572,-11.9314 c 8.8104,-4.1807 17.1046,-21.2123 18.7118,-38.4229 1.4585,-15.6186 -3.836,-23.3966 -15.9262,-23.3966 -11.7921,0 -19.9069,7.7757 -25.2809,24.2246 -3.6516,11.1767 -4.02,28.3766 -0.7081,33.0557 4.8224,6.813 14.4448,8.6955 23.2034,4.5392 z m 69.14137,13.024 c -17.47587,-7.9664 -25.52157,-27.0324 -20.18997,-47.8439 4.3685,-17.0517 12.37057,-28.2284 25.07817,-35.0272 7.4379,-3.9794 9.8996,-4.5835 20.64041,-5.065 9.0211,-0.4045 13.93979,0.033 18.89739,1.6793 9.1153,3.0276 10.1364,4.4979 8.0898,11.6495 -2.5526,8.9201 -3.5229,9.6087 -8.106,5.7523 -2.1717,-1.8275 -5.5524,-3.6726 -7.5126,-4.1003 -1.96009,-0.4277 -4.33479,-1.0167 -5.27699,-1.3089 -0.9422,-0.2922 -4.6256,0.093 -8.18531,0.8568 -8.2066,1.76 -16.3548,8.5929 -21.1229,17.7134 -3.0731,5.8781 -3.586,8.492 -3.6134,18.4148 -0.027,9.6753 0.4237,12.18 2.7573,15.3333 7.6838,10.3828 19.5127,12.6798 32.35101,6.2822 3.84849,-1.9178 7.28999,-3.194 7.64789,-2.8362 0.3578,0.3579 -0.3644,4.3017 -1.6051,8.764 -2.1725,7.8141 -2.4782,8.1892 -8.29019,10.1695 -8.43951,2.8756 -24.79301,2.651 -31.55951,-0.4336 z m 120.658,1.3143 c -15.094,-4.9088 -22.7008,-15.29 -23.7137,-32.3624 -1.3798,-23.2593 9.6194,-44.6284 27.4653,-53.3592 7.5451,-3.6913 24.0944,-4.9083 32.9666,-2.4242 14.3223,4.01 21.5919,16.2766 20.2399,34.1527 -0.4054,5.3605 -1.1203,10.3663 -1.5886,11.1241 -0.5453,0.8823 -11.6679,1.3778 -30.9282,1.3778 h -30.0766 l 0.5503,8.6436 c 0.4642,7.2899 1.1494,9.2687 4.3753,12.6358 5.1176,5.3417 11.1638,7.1235 21.8401,6.4364 8.6699,-0.558 14.5154,-2.5005 21.8244,-7.2525 1.987,-1.2918 3.9086,-2.053 4.2702,-1.6914 0.3616,0.3616 -0.3642,4.4848 -1.6128,9.1626 -2.15,8.055 -2.5879,8.6491 -8.2702,11.2238 -4.5782,2.0743 -9.3176,2.8016 -20,3.0692 -7.7,0.1928 -15.5039,-0.1385 -17.342,-0.7363 z m 39.712,-62.3837 c -0.4978,-6.0026 -1.3297,-8.1638 -4.0396,-10.4948 -10.1895,-8.7646 -28.3794,-2.8911 -35.7423,11.5413 -1.4235,2.7902 -2.5881,5.397 -2.5881,5.7929 0,0.3959 9.6743,0.7198 21.4984,0.7198 h 21.4985 z m -110.37,61.0508 c 0,-0.708 1.8753,-8.9832 4.1674,-18.3894 2.2921,-9.4062 6.4234,-28.2022 9.1806,-41.7689 l 5.0131,-24.6666 9.7344,-1.6406 c 5.354,-0.9023 9.9822,-1.3929 10.2849,-1.0901 0.3028,0.3028 -2.2219,13.041 -5.6104,28.3073 -3.3885,15.2662 -7.5509,34.9567 -9.2499,43.7567 l -3.0889,16 -10.2156,0.3894 c -5.9467,0.2267 -10.2156,-0.1485 -10.2156,-0.8978 z m -637.65441,-2.081 c -2.00994,-1.0486 -23.00994,-17.738 -46.66667,-37.0877 -50.52417,-41.3257 -96.24771,-78.2091 -128.14367,-103.3686 -12.57772,-9.9213 -26.61857,-21.318 -31.20191,-25.326 l -8.33333,-7.2873 v -14.2724 -14.2724 l 15.66667,-5.1521 c 54.60646,-17.9578 99.99687,-56.6582 122.97041,-104.8462 7.66883,-16.0857 9.7519,-25.6119 9.12219,-41.71738 -0.42948,-10.98458 -1.16464,-14.79883 -4.05943,-21.06155 -4.41906,-9.56044 -14.91233,-20.19602 -24.05212,-24.3783 -13.50974,-6.18193 -22.6725,-7.6889 -42.30671,-6.95806 -20.75378,0.77252 -30.37614,3.18582 -57.34101,14.3813 -21.29104,8.83978 -25.68983,10.11283 -29.33024,8.48843 l -2.86467,-1.27825 2.86342,-3.64023 c 4.0142,-5.10324 30.08218,-22.16144 46.07034,-30.14721 49.21287,-24.5809 100.92166,-26.53312 137.26115,-5.1822 11.93566,7.01268 26.66175,21.73882 33.77206,33.77221 12.02328,20.348 17.65228,43.19477 17.74794,72.03474 0.108,32.555 -7.54916,58.6358 -24.62917,83.8886 -7.57253,11.196 -25.04069,28.2172 -36.89083,35.9468 -5.5,3.5876 -10.18572,6.6529 -10.4127,6.8118 -0.22698,0.159 7.80152,14.6033 17.8411,32.0986 19.37862,33.7696 21.82848,37.9789 61.79944,106.1812 14.08768,24.0378 25.72458,45.302 25.85974,47.2537 0.39596,5.7174 -3.94927,7.0003 -23.75424,7.0134 -12.45499,0.01 -18.36184,-0.5251 -20.98776,-1.8949 z m 661.65441,-106.5113 c 0,-1.116 0.7167,-5.1342 1.5927,-8.9292 1.7939,-7.7715 2.7849,-8.4296 14.7406,-9.7886 8.7147,-0.9906 8.6135,-1.1536 6.0844,9.8031 -0.8702,3.7701 -2.5202,7.3471 -3.6666,7.9489 -1.1465,0.6018 -5.8344,1.5219 -10.4178,2.0446 -6.9881,0.797 -8.3333,0.6228 -8.3333,-1.0788 z m -136.04007,-42.566 c -8.2886,-4.1872 -11.9517,-10.1531 -11.992,-19.5305 -0.024,-5.5765 8.3809,-49.2028 12.7766,-66.3185 0.475,-1.8495 26.963,-3.9802 28.6292,-2.303 0.6378,0.6421 -1.1645,10.7327 -4.0719,22.7971 -7.9072,32.8114 -8.7041,38.367 -6.0781,42.3748 1.6424,2.5066 3.3322,3.3135 6.9389,3.3135 7.7931,0 13.6157,-3.5324 15.0759,-9.1462 1.1421,-4.3905 12.09477,-56.9831 12.09477,-58.0766 0,-0.8401 27.8351,-2.3699 29.0835,-1.5983 0.6996,0.4324 -0.4236,7.515 -2.6096,16.4567 -2.1108,8.6338 -6.5685,28.2853 -9.9061,43.6702 -3.3375,15.3848 -6.2509,28.1551 -6.4741,28.3783 -0.2232,0.2232 -6.6356,0.5355 -14.24967,0.6942 l -13.844,0.2883 0.4062,-3.8093 0.4062,-3.8093 -3.7395,2.6516 c -5.0997,3.616 -15.4426,6.967 -21.5036,6.967 -2.7523,0 -7.6765,-1.35 -10.9427,-3 z m 104.20377,1.7486 c -10.20449,-2.6011 -14.78059,-8.8276 -14.81069,-20.1519 -0.016,-5.8589 6.1987,-35.524 10.11029,-48.2633 0.6115,-1.9918 -0.1966,-2.3333 -5.52179,-2.3333 h -6.2383 l 0.9103,-4.8524 c 0.5007,-2.6688 1.6175,-7.0188 2.4818,-9.6667 1.4692,-4.5013 1.968,-4.8401 7.67269,-5.2112 l 6.1014,-0.3969 1.7362,-8.9364 c 0.9549,-4.9151 2.1951,-9.7971 2.7559,-10.849 1.1594,-2.1745 28.1374,-9.7832 29.581,-8.3428 0.5183,0.5172 -0.5196,6.6362 -2.3066,13.5978 -4.3684,17.0181 -4.5363,16.2464 3.3077,15.2058 10.5197,-1.3954 10.861,-0.9475 7.6321,10.0166 l -2.7785,9.4352 h -8.2698 -8.2698 l -4.8094,20.3333 c -2.6451,11.1833 -4.8031,21.9098 -4.7955,23.8367 0.021,5.2951 3.0033,6.9878 10.7043,6.0757 4.8976,-0.5801 6.643,-0.3414 6.643,0.9084 0,3.2133 -4.2321,16.1828 -5.8208,17.838 -1.9951,2.0788 -19.9859,3.2934 -26.0155,1.7564 z m 65.3671,-1.2135 c -17.4459,-6.2358 -23.7225,-17.0612 -22.5361,-38.8684 1.8149,-33.3581 23.1554,-53.4673 54.8835,-51.717 21.6168,1.1925 33.9632,12.0863 36.2124,31.952 2.6599,23.4937 -9.8433,47.8363 -28.982,56.4252 -11.2212,5.0358 -28.9067,6.0225 -39.5778,2.2082 z m 24.6973,-18.7898 c 5.7387,-3.4992 10.7854,-12.5748 13.12,-23.5938 4.3007,-20.2988 1.2603,-29.8181 -9.5234,-29.8181 -8.7175,0 -15.896,8.4593 -19.7554,23.2801 -2.3833,9.1526 -2.7252,23.6697 -0.6488,27.5494 2.847,5.3197 10.4121,6.4821 16.8076,2.5824 z m 218.6455,19.3895 c -10.6255,-3.9535 -16.8992,-13.5926 -17.8975,-27.4983 -1.6989,-23.664 11.0055,-46.8228 30.7242,-56.0071 11.0684,-5.1552 23.0456,-6.7955 46.2997,-6.3407 18.3636,0.3591 19.3275,0.5118 19.2167,3.0447 -0.064,1.4667 -3.1956,15.8667 -6.959,32 -3.7632,16.1333 -7.7652,34.6878 -8.8933,41.2322 -1.1281,6.5445 -2.3008,12.1486 -2.6057,12.4536 -0.3051,0.305 -6.6006,0.8878 -13.99,1.295 l -13.4354,0.7403 v -3.3234 -3.3233 l -6.4789,3.2064 c -8.112,4.0146 -19.1003,5.0806 -25.9808,2.5206 z m 33.2233,-21.5026 c 2.1687,-1.3475 3.6564,-5.6905 6.9112,-20.1747 2.2812,-10.1516 4.5543,-20.7074 5.0515,-23.4574 l 0.9039,-5 -5.1484,0.029 c -11.275,0.064 -22.2555,8.8393 -26.4446,21.1335 -3.0194,8.8617 -2.6958,21.6403 0.6561,25.9014 3.9326,4.9996 11.4921,5.6555 18.0703,1.568 z m 66.0626,21.8311 c -6.7547,-1.9427 -10.3455,-4.7573 -12.8783,-10.0947 -2.9445,-6.2053 -2.1691,-13.6949 4.0155,-38.7773 2.5868,-10.4915 4.7033,-19.6415 4.7033,-20.3334 0,-0.6918 -2.7,-1.2578 -6,-1.2578 -3.3,0 -6,-0.3854 -6,-0.8563 0,-0.4709 1.2255,-4.9709 2.7231,-10 l 2.7232,-9.1437 h 5.9181 c 5.0411,0 6.0219,-0.4446 6.618,-3 0.3848,-1.65 1.4831,-6.5531 2.4404,-10.8956 l 1.7407,-7.8956 14.4709,-3.7739 c 7.9591,-2.0757 14.7869,-3.4581 15.1729,-3.072 0.6091,0.609 -4.3848,23.6033 -6.1586,28.3576 -0.5043,1.3516 1.2513,1.5265 8.188,0.8159 10.1986,-1.0449 10.0601,-1.2822 6.301,10.7969 l -2.4897,8 -8.4907,0.6667 -8.4906,0.6666 -5.2192,22.5035 c -3.8578,16.6331 -4.856,23.0677 -3.8268,24.6666 1.0524,1.6349 3.3856,2.1318 9.5525,2.0343 5.1625,-0.082 8.1243,0.4082 8.0627,1.3333 -0.053,0.8043 -1.4036,5.361 -3,10.1261 -2.8132,8.3972 -3.0667,8.6922 -8.2359,9.5898 -7.3617,1.2783 -16.4695,1.0877 -21.8405,-0.457 z m 118.0702,-0.2881 c -14.8246,-4.1812 -23.275,-14.7613 -24.5582,-30.7479 -1.9627,-24.4512 9.9566,-47.2974 29.3494,-56.2546 7.4883,-3.4587 9.7004,-3.8393 22.3124,-3.8393 15.5952,0 22.6771,2.2465 29.8007,9.4533 11.9701,12.1098 13.5007,35.1278 3.7125,55.8307 -7.9876,16.8947 -22.4732,26.0332 -42.6146,26.8844 -7.1898,0.3039 -14.0006,-0.198 -18.0022,-1.3266 z m 26.596,-22.5859 c 6.0498,-6.5502 10.0138,-18.1865 10.8347,-31.805 0.6681,-11.0854 0.5576,-11.6875 -2.7549,-15 -2.2475,-2.2475 -4.9115,-3.4509 -7.6392,-3.4509 -12.1495,0 -20.77,14.3036 -22.2506,36.9196 -0.7126,10.8853 -0.7016,10.933 3.5299,15.1644 3.696,3.6961 4.8832,4.1434 9.1829,3.46 3.2562,-0.5176 6.3548,-2.3188 9.0972,-5.2881 z m -792.82568,21.3149 c 0,-1.1814 4.41098,-10.1182 9.80216,-19.8595 5.3912,-9.7412 18.65774,-34.5113 29.48125,-55.0446 10.8234,-20.5334 20.537,-38.6997 21.5856,-40.3697 1.8577,-2.9582 2.3935,-3.0267 20.8522,-2.6666 l 18.9455,0.3696 1.5424,20.6667 c 0.8483,11.3666 2.9041,37.6108 4.5684,58.3204 1.6644,20.7095 2.7615,37.9183 2.438,38.2418 -0.3234,0.3235 -7.2581,1.0102 -15.4103,1.526 l -14.8223,0.9379 -0.9721,-16.1797 -0.9721,-16.1798 h -17.0029 -17.0028 l -7.0903,15.3333 -7.09043,15.3334 -5.42614,0.01 c -2.98438,0.01 -9.47614,0.392 -14.42614,0.8595 -7.73864,0.7308 -9,0.5489 -9,-1.2982 z m 76.33091,-71.9041 c -0.2615,-11.1834 -0.593,-21.114 -0.7365,-22.0682 -0.1436,-0.9541 -5.2087,8.1959 -11.2559,20.3333 l -10.9948,22.0682 h 11.7313 11.7313 z m 301.31877,70.6666 c 0.345,-1.65 3.1803,-14.1 6.3006,-27.6667 3.1204,-13.5666 7.0063,-31.8666 8.6354,-40.6666 l 2.962,-16 12.5595,-2.2656 c 18.451,-3.3283 18.9639,-3.2778 17.8581,1.7569 -0.5023,2.2869 -0.4,3.9063 0.2274,3.5986 0.6273,-0.3076 4.1406,-2.0287 7.8073,-3.8246 5.229,-2.5611 8.7734,-3.2653 16.4358,-3.2653 9.5462,0 9.8713,0.1116 14.2506,4.8901 l 4.4814,4.8901 8.8922,-4.7218 c 16.311,-8.6611 33.9592,-6.9858 40.5661,3.8509 4.0341,6.6167 3.3813,15.1717 -3.7966,49.7573 l -6.3647,30.6667 -6.5657,0.8832 c -3.6112,0.4858 -10.3158,0.9358 -14.8991,1 -7.1829,0.1007 -8.3333,-0.2149 -8.3333,-2.2862 0,-1.3217 2.6997,-13.7717 5.9995,-27.6667 8.1592,-34.358 7.9511,-39.2636 -1.6658,-39.2636 -7.3448,0 -12.083,3.2588 -13.0905,9.0033 -0.482,2.7482 -3.4162,16.9967 -6.5203,31.6633 -5.6399,26.6474 -5.6468,26.6673 -9.5168,27.509 -6.1938,1.347 -24.3082,1.2772 -25.1575,-0.097 -0.4265,-0.6901 1.7019,-11.9401 4.7298,-25 6.4529,-27.8332 7.7251,-38.0622 5.1237,-41.1966 -2.3812,-2.8692 -12.6223,-1.8122 -15.867,1.6376 -1.5121,1.6076 -4.323,11.8624 -7.9896,29.1469 -3.1111,14.6667 -6.0805,28.4667 -6.5985,30.6667 -0.8486,3.6036 -1.5945,4.0875 -7.5278,4.8832 -3.6223,0.4858 -10.4059,0.9358 -15.0747,1 -8.1255,0.1119 -8.4619,-0.012 -7.8615,-2.8832 z m 310.0968,2.3021 c -0.3837,-0.3838 1.6436,-10.1338 4.5054,-21.6666 2.8617,-11.5329 7.1742,-30.8688 9.5833,-42.9688 l 4.38,-22 14.4768,-2.3797 c 7.9623,-1.3088 15.2309,-2.0902 16.1527,-1.7365 1.2428,0.4769 1.3485,1.7812 0.409,5.0463 -2.5148,8.7407 -12.2513,52.7562 -15.1312,68.4032 l -2.9448,16 -7.9222,0.8553 c -10.227,1.1041 -22.6162,1.3396 -23.509,0.4468 z m 149.5868,-0.608 c 0,-0.7183 2.3506,-11.3683 5.2234,-23.6667 2.8728,-12.2984 6.5182,-29.2607 8.101,-37.694 5.1772,-27.5852 3.656,-24.4444 12.7199,-26.2624 4.3757,-0.8777 11.1057,-1.9968 14.9557,-2.487 l 7,-0.8912 v 3.9497 3.9498 l 6.9402,-3.4347 c 9.1012,-4.5041 22.3308,-5.3676 29.0333,-1.895 7.3924,3.8301 10.6932,9.969 10.6932,19.8874 0,6.9122 -11.1183,66.6333 -12.7196,68.3227 -1.0559,1.114 -28.2995,1.781 -28.9611,0.709 -0.4012,-0.6499 1.6038,-11.0817 4.4554,-23.1817 6.5149,-27.6451 7.8312,-39.8703 4.6364,-43.0651 -2.9706,-2.9706 -9.7263,-2.8791 -14.7754,0.1999 -3.9348,2.3996 -4.186,3.2055 -10.5433,33.8218 l -6.5125,31.3637 -8.79,0.8304 c -12.8583,1.2147 -21.4566,1.0317 -21.4566,-0.4566 z m -126.1232,-101.5602 c -0.7432,-1.2025 3.4091,-22.5629 4.6756,-24.0524 1.2366,-1.4544 28.6599,-4.9335 29.8747,-3.7901 0.6016,0.5662 -0.2984,6.3572 -2,12.869 l -3.0937,11.8396 -14.388,2.1176 c -7.9134,1.1647 -14.6943,1.622 -15.0686,1.0163 z m -547.56407,-49.1627 c -20.8177,-5.2718 -30.1711,-21.5994 -26.3351,-45.97118 3.0414,-19.32232 13.5012,-34.62387 28.3591,-41.48609 7.5872,-3.50418 9.6379,-3.84682 22.99667,-3.84252 13.3494,0.004 15.2797,0.3277 21.493,3.60112 13.90441,7.32548 18.54531,17.05325 17.51831,36.72079 -1.218,23.32708 -9.26071,37.36838 -26.38501,46.06438 -8.6714,4.4034 -11.4256,5.1305 -21.29297,5.6213 -6.2333,0.31 -13.5927,-0.01 -16.354,-0.7078 z m 24.60717,-23.9603 c 6.1132,-6.2987 10.7027,-20.3275 10.9256,-33.3963 0.1343,-7.87553 -0.2691,-9.51445 -3.0779,-12.50562 -6.6768,-7.11035 -18.18117,-3.04588 -24.07417,8.50535 -3.4355,6.73423 -7.1598,25.85937 -6.2934,32.31857 1.6746,12.4854 12.8785,15.0118 22.51987,5.078 z m 170.0594,23.9603 c -20.8177,-5.2718 -30.1711,-21.5994 -26.335,-45.97118 3.0413,-19.32232 13.5011,-34.62387 28.3591,-41.48609 7.5871,-3.50418 9.6378,-3.84682 22.9966,-3.84252 13.3495,0.004 15.2797,0.3277 21.493,3.60112 13.9045,7.32548 18.5453,17.05325 17.5184,36.72079 -1.2181,23.32708 -9.2608,37.36838 -26.3851,46.06438 -8.6713,4.4034 -11.4256,5.1305 -21.2929,5.6213 -6.2334,0.31 -13.5927,-0.01 -16.3541,-0.7078 z m 24.6072,-23.9603 c 6.1132,-6.2987 10.7028,-20.3275 10.9256,-33.3963 0.1343,-7.87553 -0.269,-9.51445 -3.0778,-12.50562 -6.6769,-7.11035 -18.1812,-3.04588 -24.0742,8.50535 -3.4356,6.73423 -7.1598,25.85937 -6.2935,32.31857 1.6747,12.4854 12.8786,15.0118 22.5199,5.078 z m 67.7469,24.1195 c -13.0281,-2.7554 -18.1965,-9.9044 -16.8881,-23.3597 0.4334,-4.4572 2.9105,-16.688 5.5047,-27.17946 2.5942,-10.49149 4.7167,-19.34149 4.7167,-19.66666 0,-0.32517 -2.7,-0.59123 -6,-0.59123 -3.3,0 -5.9977,-0.45 -5.9948,-1 0,-0.55 1.1045,-4.9 2.448,-9.66666 l 2.4429,-8.66667 6.1342,-0.40295 6.1342,-0.40293 2.4543,-10.90753 2.4544,-10.90752 14.4473,-3.76114 c 7.9461,-2.06862 14.7586,-3.44997 15.1389,-3.06964 0.5719,0.57194 -3.2069,17.78883 -5.8058,26.45171 -0.6169,2.05641 0.3392,2.33333 8.0565,2.33333 4.8161,0 8.7566,0.35686 8.7566,0.79302 0,0.43616 -1.2585,4.93616 -2.7966,10 l -2.7965,9.20698 h -8.2331 -8.2331 l -5.012,21.66667 c -2.7566,11.91668 -4.9933,22.64318 -4.9704,23.83678 0.08,4.1452 3.6394,5.5776 11.5505,4.6478 5.9094,-0.6945 7.3246,-0.5091 6.788,0.8892 -0.3728,0.9717 -1.7165,5.4682 -2.9859,9.9924 -1.4154,5.0446 -3.1465,8.4608 -4.4761,8.8338 -4.6606,1.3072 -18.4053,1.8673 -22.8348,0.9304 z m 116.8964,-0.7072 c -3.5403,-0.9516 -8.9314,-3.4834 -11.9803,-5.6262 -26.0462,-18.306 -17.6465,-66.70106 14.1048,-81.26418 10.6828,-4.89983 28.9777,-6.07612 39.6047,-2.54641 10.5656,3.50932 10.9597,4.31552 7.4778,15.2977 -1.6317,5.1463 -3.347,9.73734 -3.8121,10.20231 -0.4649,0.46499 -2.6884,-0.70536 -4.9409,-2.60077 -10.2171,-8.5971 -25.3178,-4.90828 -32.9048,8.03801 -4.6194,7.88226 -5.9207,23.02294 -2.5407,29.55924 4.9507,9.5735 16.7459,12.1502 28.066,6.1311 3.5025,-1.8622 6.6524,-3.1018 6.9997,-2.7544 0.6866,0.6866 -3.6032,19.9279 -4.9168,22.0532 -1.2306,1.9914 -15.8602,5.4318 -22.6673,5.3306 -3.3292,-0.05 -8.9499,-0.8686 -12.4901,-1.8202 z m 62.077,-0.072 c -7.503,-2.1103 -14.3518,-5.2663 -15.5161,-7.15 -0.6489,-1.0501 3.758,-18.527 4.9799,-19.7489 0.2874,-0.2875 3.6342,1.5712 7.4373,4.1305 3.8031,2.5593 9.0207,5.0483 11.5945,5.5312 10.0807,1.8911 19.1976,-2.0149 19.1976,-8.2249 0,-3.9949 -2.707,-6.5308 -11.9549,-11.1991 -14.7699,-7.45583 -20.0743,-14.25238 -20.0157,-25.64661 0.061,-11.83156 8.5908,-22.7319 21.1334,-27.00563 11.7242,-3.99479 37.0416,-1.90239 44.695,3.69387 2.413,1.76453 2.4134,2.06237 0.015,11.37378 -1.3548,5.259 -3.1373,9.56182 -3.9612,9.56182 -0.8238,0 -2.5645,-1.17844 -3.868,-2.61875 -5.6122,-6.20145 -21.2886,-8.54717 -26.7622,-4.00452 -5.2522,4.35889 -0.9342,10.57056 11.5358,16.59474 13.5062,6.52474 18.707,13.5713 18.707,25.3462 0,12.2163 -6.8676,21.8907 -19.507,27.4798 -8.6152,3.8097 -27.511,4.755 -37.7101,1.8865 z m 125.27,-0.4652 c -14.7292,-5.2695 -22.2897,-18.3875 -19.1805,-33.2793 2.2001,-10.53774 7.3268,-17.2206 18.3325,-23.89713 5.0992,-3.09337 10.0322,-6.09337 10.9622,-6.66666 1.3262,-0.8176 1.1106,-2.55471 -1,-8.05666 -9.5896,-24.99693 7.0725,-46.15376 34.485,-43.78764 17.176,1.48255 27.401,10.42934 27.3898,23.96595 -0.013,11.29887 -6.1403,19.70585 -20.9291,28.69864 l -5.0301,3.05867 2.6968,4.53934 c 1.4832,2.49664 3.9728,6.68329 5.5324,9.30367 l 2.8358,4.76432 4.551,-4.41102 c 2.503,-2.42605 6.7266,-7.57 9.3858,-11.43098 2.6592,-3.86099 5.2682,-7.01997 5.7976,-7.01997 1.155,0 11.9274,16.94191 11.9274,18.75827 0,0.69903 -4.5858,6.0708 -10.1906,11.9372 l -10.1904,10.6663 4.3943,6.9858 c 7.1584,11.3801 8.6385,14.1157 7.9616,14.7156 -0.3528,0.3128 -7.3713,0.9609 -15.5965,1.4403 l -14.955,0.8717 -2.0793,-4.0209 c -1.1436,-2.2115 -2.2965,-4.0209 -2.562,-4.0209 -0.2655,0 -4.4239,1.8442 -9.2408,4.0984 -11.564,5.4114 -24.9973,6.472 -35.2979,2.787 z m 30.1227,-22.4891 4.366,-2.0646 -4.2309,-7.4992 c -6.423,-11.38429 -6.9998,-12.16588 -8.9788,-12.16588 -3.2406,0 -12.1891,10.08278 -12.1891,13.73408 0,5.3804 1.4388,7.7658 5.8663,9.7256 4.4457,1.9679 8.2688,1.5319 15.1665,-1.73 z m 16.2429,-62.6259 c 3.437,-4.36936 3.4543,-7.70715 0.057,-11.10377 -3.6008,-3.60086 -7.4332,-3.35467 -11.5284,0.74058 -2.8524,2.85238 -3.2634,4.17451 -2.5235,8.11876 0.4861,2.59134 1.5335,6.13715 2.3273,7.87958 l 1.4435,3.16805 3.7496,-2.66991 c 2.0623,-1.46844 4.9755,-4.22842 6.4739,-6.13329 z m -772.4814,85.0864 c -0.28572,-0.4713 3.28123,-16.685 7.92663,-36.0305 4.6453,-19.3455 10.3713,-45.1455 12.7245,-57.33333 2.3531,-12.18782 4.4717,-22.90968 4.708,-23.82634 0.6393,-2.48046 52.5445,-2.33227 60.8715,0.17378 13.9023,4.18398 19.5719,12.32978 19.5995,28.15955 0.012,7.01939 -0.7593,10.99875 -3.1119,16.0508 -3.6341,7.80419 -13.5465,17.11702 -20.6249,19.37729 -2.6882,0.85839 -5.2993,1.93823 -5.8024,2.39964 -0.5032,0.46141 3.4928,11.63891 8.8799,24.83891 5.3872,13.2 9.3988,24.3832 8.9149,24.8515 -1.6347,1.5816 -29.5954,2.1424 -30.6017,0.6137 -0.5197,-0.7895 -4.245,-11.0422 -8.2783,-22.7837 -7.2399,-21.07608 -7.386,-21.35328 -11.4686,-21.75118 l -4.1352,-0.40303 -2.7575,13.06971 c -1.5166,7.1883 -3.4868,16.9697 -4.3782,21.7364 -0.8914,4.7666 -1.9897,9.0441 -2.4406,9.5055 -1.1227,1.1486 -29.37752,2.4203 -30.02563,1.3513 z m 63.58193,-68.685 c 12.2642,-5.22571 16.666,-22.83892 6.828,-27.32139 -4.5779,-2.08585 -17.7867,-1.97942 -18.5599,0.14955 -0.3329,0.91667 -2.0445,7.81667 -3.8036,15.33333 l -3.1983,13.66667 h 7.2216 c 3.9719,0 9.1524,-0.82267 11.5122,-1.82816 z m 394.96827,68.5129 c -0.3833,-0.6202 -0.1576,-2.5462 0.5016,-4.28 1.7437,-4.5864 14.2749,-60.03802 16.1553,-71.48894 1.3078,-7.96391 2.1264,-9.94264 4.4666,-10.79724 4.6266,-1.68955 27.5002,-4.5948 28.4779,-3.61708 0.4925,0.49248 -1.6334,11.83111 -4.7243,25.19696 -3.0908,13.36586 -7.3307,33.1772 -9.422,44.0252 -2.0913,10.848 -4.0268,19.9161 -4.301,20.1515 -1.2289,1.0544 -30.5321,1.816 -31.1541,0.8096 z m -259.33959,-1.0181 c 0,-0.55 4.5509,-20.5 10.10709,-44.33331 5.5562,-23.83333 11.816,-51.9653 13.9106,-62.51549 2.0946,-10.55017 4.2964,-19.63785 4.8929,-20.19481 1.5191,-1.41847 28.0422,-5.67919 29.5505,-4.74704 0.7013,0.43341 -1.2818,10.72516 -4.5817,23.77742 -3.1999,12.6573 -5.833,23.10562 -5.8512,23.2185 -0.018,0.11293 2.9733,-0.93712 6.6479,-2.33334 7.8018,-2.96449 19.5774,-3.30205 25.716,-0.73718 13.5159,5.6473 20.0858,25.5468 14.9474,45.27421 -5.8363,22.40734 -21.0847,37.79054 -41.7434,42.11284 -7.8601,1.6445 -53.60379,2.0527 -53.59609,0.4782 z m 44.46799,-19.1086 c 12.2434,-3.3996 22.5163,-18.8121 22.7401,-34.11699 0.1012,-6.9207 -0.3822,-8.76052 -3.0471,-11.5975 -4.4291,-4.71491 -9.7504,-5.59666 -15.7959,-2.61738 l -4.9523,2.4405 -4.9752,21.33333 c -2.7364,11.73334 -5.0054,22.38334 -5.0422,23.66664 -0.079,2.7373 3.4126,3.0183 11.0726,0.8914 z m 238.1938,-82.41543 c 0,-2.98841 4.3728,-22.25797 5.2672,-23.21088 1.4709,-1.56721 28.4108,-5.12037 29.624,-3.90718 0.568,0.568 -0.2022,6.27148 -1.7116,12.67438 -3.0656,13.00443 -1.6362,11.87899 -18.1017,14.2523 -11.7484,1.6934 -15.0779,1.73566 -15.0779,0.19138 z M 881.65313,127.78537 c -0.2988,-0.48486 1.6419,-9.78486 4.3125,-20.66666 2.6707,-10.881797 8.5776,-37.185098 13.1265,-58.45176 l 8.2708,-38.66667 34.2123,-0.35584 c 18.81677,-0.19571 34.20317,0.10429 34.19207,0.66667 -0.011,0.56238 -0.8269,3.72251 -1.8127,7.02251 l -1.7925,6 -23.88067,0.36222 -23.8808,0.36223 -3.1656,14.30444 c -1.741,7.86744 -3.4489,15.65444 -3.7953,17.304442 l -0.6297,3 h 22.928 22.92807 l -0.9425,4.33333 c -2.4101,11.08108 -0.5517,10.33333 -25.68107,10.33333 h -22.4776 l -4.2278,19.000001 c -2.3253,10.449997 -4.2252,19.398477 -4.222,19.885527 0,0.48705 10.4418,0.54833 23.1971,0.13618 12.7552,-0.41215 24.12857,-0.38966 25.27427,0.05 1.8859,0.72368 1.8826,1.40503 -0.035,7.19716 -1.165,3.51879 -2.48847,6.81764 -2.94097,7.33078 -1.0551,1.19637 -68.2336,2.02652 -68.9572,0.85213 z m 90.78197,-0.0207 c -0.3895,-1.01509 1.9547,-12.92734 5.2094,-26.47166 3.2548,-13.544318 8.4328,-36.626038 11.5068,-51.29271 3.07401,-14.66666 6.31191,-29.66666 7.19531,-33.33333 l 1.6062,-6.66667 34.40209,-0.35615 c 29.6531,-0.30698 34.2994,-0.0884 33.6579,1.58327 -0.4093,1.06669 -1.4006,4.37695 -2.2028,7.35615 l -1.4586,5.41673 h -23.7252 -23.7252 l -3.5751,15.66667 c -1.9663,8.61667 -3.5668,16.416662 -3.5567,17.333332 0.014,1.26501 5.3013,1.66667 21.9396,1.66667 12.0567,0 22.2254,0.49192 22.5969,1.09315 0.3716,0.60123 -0.1086,3.75123 -1.0672,7 l -1.7428,5.90685 -22.7497,0.36437 -22.7496,0.36437 -3.4008,14.50293 c -1.87039,7.976611 -3.78459,16.903428 -4.25379,19.837378 l -0.853,5.33447 25.00269,-0.73903 25.0026,-0.73902 -0.9404,5.01294 c -0.5172,2.75711 -1.4864,6.44888 -2.1536,8.20392 l -1.2132,3.19097 h -31.924 c -17.55819,0 -32.868,0.36225 -34.0217,0.805 -1.1823,0.45367 -2.407,-5e-4 -2.8061,-1.04062 z m 90.39,-0.71799 c -0.3413,-0.89115 1.7984,-11.69115 4.755,-23.99999 4.7303,-19.693468 14.4106,-63.86041 18.8592,-86.04639 l 1.5373,-7.66666 h 33.9055 c 22.9373,0 33.9054,0.45598 33.9054,1.40957 0,0.77526 -0.6712,4.07526 -1.4916,7.33333 l -1.4916,5.92376 h -23.8163 c -23.5993,0 -23.8228,0.0273 -24.5257,3 -0.3902,1.65 -2.1012,9.3 -3.8022,17 l -3.0927,14.000002 22.4481,0.66667 c 12.3464,0.36666 22.513,1.13353 22.5922,1.70414 0.079,0.57062 -0.5314,3.72062 -1.3572,7 l -1.5014,5.96252 h -22.596 -22.5961 l -1.3267,5 c -0.7296,2.75 -2.5741,10.7 -4.0988,17.666671 -1.5246,6.966657 -3.0705,13.651437 -3.4352,14.855067 -0.6039,1.9928 1.6052,2.1242 24.714,1.47005 28.4869,-0.80638 26.9532,-1.42557 23.2667,9.39389 l -2.1105,6.19406 -34.0604,0.37679 c -25.7885,0.28529 -34.211,-0.0167 -34.681,-1.24348 z m -229.70417,-0.54472 c 0,-0.88577 4.163,-19.661 9.2512,-41.722738 5.0882,-22.06174 10.8904,-48.062252 12.8938,-57.778922 l 3.6425,-17.66666 h 10.4396 c 5.7417,0 10.4395,0.30771 10.4395,0.68381 0,0.3761 -3.0203,13.4261 -6.7117,29 -3.6915,15.573902 -9.5516,41.816182 -13.0224,58.316183 l -6.3106,29.999987 -10.311,0.38942 c -7.383,0.27884 -10.3109,-0.0679 -10.3109,-1.22108 z"
       id="path169"
       inkscape:connector-curvature="0"
       sodipodi:nodetypes="cccccccccccccscssccccccccccccccccssscsccccccscccsccsscccscccccccscccccscccccccccccscccscccccccccccscccccscccccccssccssccccccccsccscccccsscssscccssssscccscccssscccsccccscscscccscccccsccccscccccccccccccccccsccccsccccssccccccccccccccccccsccccccccccsssccscccccccccccccccccccccsccccccssccccscccsccccccccccccccsscccccccccscccccsccccccccscsccccccccccccccccccccccccssccccccccscccscsccscccccccccccccccccccccccscccccccccccccccsssccccccccccssccccscccccccccscccccccccccccscscccccscccsccccccccsccccccccsscccccccscccccssccccccccccccccccccccccccsccccccccccsccccsccscccsscccccsccccsccccccscccssccccscccccccccccscscscccccccsccscccccscscccacccccccccscccccccssccscccsccccccccsscscssccsscccss" />
  </g>
  <g
     inkscape:groupmode="layer"
     id="layer2"
     inkscape:label="next"
     style="display:inline">
    <path
       style="display:inline;fill:#bf5700;fill-opacity:1;stroke-width:1.33333337"
       d="M 144.3229,607.88281 C 83.128539,602.41701 36.543269,575.80911 14.889559,533.95491 2.8044988,510.59591 -0.8795612,491.15101 0.1697688,456.26242 c 0.80482,-26.759 3.11362,-39.7646 11.7504202,-66.1909 19.80357,-60.5937 71.65339,-131.22721 118.534021,-161.47547 32.79692,-21.16118 78.10929,-33.19553 106.06417,-28.16918 16.786,3.01816 37.93583,15.46887 37.93583,22.33247 0,2.78457 -0.26689,2.99137 -22,17.04647 -61.76424,39.94381 -123.00091,97.75211 -156.847891,148.06661 -15.75179,23.4155 -26.42387,47.4414 -31.07496,69.9588 -2.41621,11.69759 -2.71443,32.29209 -0.61452,42.43629 3.67058,17.7316 16.94569,36.6914 33.61736,48.0129 24.733931,16.7965 63.016531,25.0735 107.586681,23.2612 29.52606,-1.2006 68.32717,-7.2639 92.23445,-14.4131 7.36986,-2.2038 9.43422,-2.3787 12,-1.0163 4.44856,2.362 20.86207,16.0139 21.61622,17.9792 1.13325,2.9532 -28.21936,13.779 -57.7738,21.3081 -45.12266,11.4951 -90.60959,15.9011 -128.87485,12.4833 z m 537.62451,-21.5277 c -9.75683,-2.5818 -18.12867,-14.1654 -18.15242,-25.1163 -0.004,-1.8851 1.64256,-6.6627 3.65923,-10.6168 11.12967,-21.8221 43.6268,-15.5732 46.53089,8.9473 1.46835,12.3979 -6.32346,23.5331 -18.86422,26.9587 -6.10483,1.6676 -6.22423,1.666 -13.17348,-0.1729 z m 17.75776,-7.5731 c 16.18189,-11.3509 9.2007,-36.1156 -10.181,-36.1156 -10.38375,0 -17.85362,6.1605 -19.75419,16.2915 -3.06535,16.3396 16.46467,29.2731 29.93519,19.8241 z m -22.58428,-16.1156 v -13.3333 h 9.3026 c 8.49144,0 9.49616,0.2954 11.52246,3.3879 1.78779,2.7285 1.92578,4.0335 0.70894,6.7041 -0.83102,1.8239 -2.38268,3.6507 -3.44815,4.0595 -1.53228,0.588 -1.09388,1.9041 2.09727,6.2959 l 4.03448,5.5526 -3.08931,0.4672 c -1.88039,0.2843 -3.61871,-0.4244 -4.44213,-1.8111 -5.96578,-10.0471 -10.0195,-11.3914 -10.0195,-3.3228 0,4.8 -0.33333,5.3333 -3.33333,5.3333 h -3.33333 z m 15.28872,-4.42222 c 0.22589,-0.78426 0.29814,-1.52864 -1.02626,-3.15308 -1.50521,-2.4355 -6.91905,-1.0626 -7.06958,1.7927 -0.112,2.1239 0.6334,2.6183 3.67504,2.4373 2.0985,-0.1248 3.93652,-0.59262 4.4208,-1.07692 z m -79.66211,24.29302 c -1.30536,-0.7598 -11.41925,-19.4654 -22.47531,-41.568 -11.05607,-22.1026 -24.53804,-48.4185 -29.95996,-58.4797 -5.42191,-10.0612 -9.85801,-19.58279 -9.85801,-21.15899 0,-1.5762 1.56365,-4.1705 3.47477,-5.765 14.75636,-12.3116 38.53785,-35.5307 62.28462,-60.8115 12.5049,-13.3127 14.56553,-15.0008 16.25245,-13.3138 1.42384,1.4238 3.34175,16.3022 7.29331,56.579 2.9488,30.056 6.86418,69.94719 8.70086,88.64719 3.98676,40.5911 4.30464,55.3397 1.21827,56.524 -3.55228,1.3632 -34.40435,0.8175 -36.931,-0.6532 z m -197.71053,-56.7883 c -9.83713,-16.0884 -25.91609,-47.02 -25.91609,-49.8556 0,-1.6229 6.23695,-14.11289 13.85989,-27.75549 7.62294,-13.6426 34.39131,-62.6047 59.48529,-108.8047 53.9895,-99.39903 71.48378,-131.37076 90.30229,-165.03232 l 13.99432,-25.03228 21.50336,0.36562 21.50336,0.36562 1.57934,8.66667 c 0.86864,4.76667 3.46641,28.16667 5.77282,52 2.30642,23.83333 4.8998,47.53338 5.76308,52.66668 1.37791,8.19351 1.89524,9.27801 4.23626,8.88061 7.11094,-1.2073 21.37942,-17.84781 34.84952,-40.64307 18.74453,-31.72103 29.51718,-75.79542 25.81258,-105.60759 -5.31417,-42.764967 -31.83141,-70.915207 -75.32877,-79.967697 -12.82096,-2.66824 -40.36058,-3.01896 -56.66667,-0.72164 -16.16193,2.27701 -48.42807,10.74916 -68.66667,18.02989 -36.2879,13.05438 -98.9194,46.895557 -131.84891,71.240897 -10.10904,7.47379 -13.08424,8.06727 -20.7744,4.14404 -8.5778,-4.37607 -27.0012,-9.11978 -41.95322,-10.80226 -17.61207,-1.98179 -34.39832,-0.30911 -60.04117,5.98285 -9.92693,2.43577 -18.04897,4.0451 -18.04897,3.57632 0,-3.2928 17.70696,-17.06016 49.86302,-38.769037 36.34438,-24.53648 95.9361,-54.33615 142.13796,-71.07807 79.00379,-28.62819 165.103,-35.83487 217.67924,-18.22021 66.4007,22.24627 99.97188,76.11686 93.23618,149.613017 -2.80483,30.60471 -9.16756,54.57724 -22.56276,85.00865 -36.35918,82.60111 -98.8013,155.51621 -201.16202,234.9014 -18.75096,14.5422 -67.49884,50.7185 -72.19782,53.5787 -1.13189,0.6889 -3.20513,-1.4878 -6.41104,-6.731 z"
       id="path169-3"
       inkscape:connector-curvature="0"
       sodipodi:nodetypes="scsssssssscssccccscccsccsscsccscccccccssccccccccssscscssccssssscccsscccssssssssssssssscs" />
  </g>
</svg>
