<?xml version="1.0" encoding="UTF-8" standalone="no"?>
<!-- Created with Inkscape (http://www.inkscape.org/) -->

<svg
   xmlns:dc="http://purl.org/dc/elements/1.1/"
   xmlns:cc="http://creativecommons.org/ns#"
   xmlns:rdf="http://www.w3.org/1999/02/22-rdf-syntax-ns#"
   xmlns:svg="http://www.w3.org/2000/svg"
   xmlns="http://www.w3.org/2000/svg"
   xmlns:sodipodi="http://sodipodi.sourceforge.net/DTD/sodipodi-0.dtd"
   xmlns:inkscape="http://www.inkscape.org/namespaces/inkscape"
   version="1.1"
   id="svg149"
   width="718.21924"
   height="609.16522"
   viewBox="0 0 718.21922 609.16522"
   sodipodi:docname="ieee_favicon.svg"
   inkscape:label="top"
   inkscape:version="0.92.1 r15371"
   inkscape:export-filename="/home/qaute/now/ras/site/resources/meta/ieee_favicon.svg.png"
   inkscape:export-xdpi="300.05652"
   inkscape:export-ydpi="300.05652">
  <metadata
     id="metadata155">
    <rdf:RDF>
      <cc:Work
         rdf:about="">
        <dc:format>image/svg+xml</dc:format>
        <dc:type
           rdf:resource="http://purl.org/dc/dcmitype/StillImage" />
        <dc:title></dc:title>
      </cc:Work>
    </rdf:RDF>
  </metadata>
  <defs
     id="defs153" />
  <sodipodi:namedview
     pagecolor="#ffffff"
     bordercolor="#666666"
     borderopacity="1"
     objecttolerance="10"
     gridtolerance="10"
     guidetolerance="10"
     inkscape:pageopacity="0"
     inkscape:pageshadow="2"
     inkscape:window-width="1920"
     inkscape:window-height="1080"
     id="namedview151"
     showgrid="false"
     inkscape:zoom="1.021978"
     inkscape:cx="322.37805"
     inkscape:cy="299.74935"
     inkscape:window-x="1920"
     inkscape:window-y="0"
     inkscape:window-maximized="1"
     inkscape:current-layer="layer2"
     fit-margin-top="0"
     fit-margin-left="0"
     fit-margin-right="0"
     fit-margin-bottom="0" />
  <g
     inkscape:groupmode="layer"
     id="layer1"
     inkscape:label="bottom"
     style="display:inline"
     transform="translate(0,0.15485051)">
    <path
       style="fill:#000000;stroke-width:1.33333337"
       d="m 376.79979,582.07701 c -2.00994,-1.0486 -23.00994,-17.738 -46.66667,-37.0877 -50.52417,-41.3257 -96.24771,-78.2091 -128.14367,-103.3686 -12.57772,-9.9213 -26.61857,-21.318 -31.20191,-25.326 l -8.33333,-7.2873 v -14.2724 -14.2724 l 15.66667,-5.1521 c 54.60646,-17.9578 99.99687,-56.6582 122.97041,-104.8462 7.66883,-16.0857 9.7519,-25.6119 9.12219,-41.71738 -0.42948,-10.98458 -1.16464,-14.79883 -4.05943,-21.06155 -4.41906,-9.56044 -14.91233,-20.19602 -24.05212,-24.3783 -13.50974,-6.18193 -22.6725,-7.6889 -42.30671,-6.95806 -20.75378,0.77252 -30.37614,3.18582 -57.34101,14.3813 -21.29104,8.83978 -25.68983,10.11283 -29.33024,8.48843 l -2.86467,-1.27825 2.86342,-3.64023 c 4.0142,-5.10324 30.08218,-22.16144 46.07034,-30.14721 49.21287,-24.5809 100.92166,-26.53312 137.26115,-5.1822 11.93566,7.01268 26.66175,21.73882 33.77206,33.77221 12.02328,20.348 17.65228,43.19477 17.74794,72.03474 0.108,32.555 -7.54916,58.6358 -24.62917,83.8886 -7.57253,11.196 -25.04069,28.2172 -36.89083,35.9468 -5.5,3.5876 -10.18572,6.6529 -10.4127,6.8118 -0.22698,0.159 7.80152,14.6033 17.8411,32.0986 19.37862,33.7696 21.82848,37.9789 61.79944,106.1812 14.08768,24.0378 25.72458,45.302 25.85974,47.2537 0.39596,5.7174 -3.94927,7.0003 -23.75424,7.0134 -12.45499,0.01 -18.36184,-0.5251 -20.98776,-1.8949 z"
       id="path169"
       inkscape:connector-curvature="0"
       sodipodi:nodetypes="ccscccccsscssscccssssscccsccc" />
  </g>
  <g
     inkscape:groupmode="layer"
     id="layer2"
     inkscape:label="next"
     style="display:inline"
     transform="translate(0,0.15485051)">
    <path
       style="display:inline;fill:#bf5700;fill-opacity:1;stroke-width:1.33333337"
       d="M 144.3229,607.88281 C 83.128539,602.41701 36.543269,575.80911 14.889559,533.95491 2.8044988,510.59591 -0.8795612,491.15101 0.1697688,456.26242 c 0.80482,-26.759 3.11362,-39.7646 11.7504202,-66.1909 19.80357,-60.5937 71.65339,-131.22721 118.534021,-161.47547 32.79692,-21.16118 78.10929,-33.19553 106.06417,-28.16918 16.786,3.01816 37.93583,15.46887 37.93583,22.33247 0,2.78457 -0.26689,2.99137 -22,17.04647 -61.76424,39.94381 -123.00091,97.75211 -156.847891,148.06661 -15.75179,23.4155 -26.42387,47.4414 -31.07496,69.9588 -2.41621,11.69759 -2.71443,32.29209 -0.61452,42.43629 3.67058,17.7316 16.94569,36.6914 33.61736,48.0129 24.733931,16.7965 63.016531,25.0735 107.586681,23.2612 29.52606,-1.2006 68.32717,-7.2639 92.23445,-14.4131 7.36986,-2.2038 9.43422,-2.3787 12,-1.0163 4.44856,2.362 20.86207,16.0139 21.61622,17.9792 1.13325,2.9532 -28.21936,13.779 -57.7738,21.3081 -45.12266,11.4951 -90.60959,15.9011 -128.87485,12.4833 z m 468.4246,-25.3456 c -1.30536,-0.7598 -11.41925,-19.4654 -22.47531,-41.568 -11.05607,-22.1026 -24.53804,-48.4185 -29.95996,-58.4797 -5.42191,-10.0612 -9.85801,-19.58279 -9.85801,-21.15899 0,-1.5762 1.56365,-4.1705 3.47477,-5.765 14.75636,-12.3116 38.53785,-35.5307 62.28462,-60.8115 12.5049,-13.3127 14.56553,-15.0008 16.25245,-13.3138 1.42384,1.4238 3.34175,16.3022 7.29331,56.579 2.9488,30.056 6.86418,69.94719 8.70086,88.64719 3.98676,40.5911 4.30464,55.3397 1.21827,56.524 -3.55228,1.3632 -34.40435,0.8175 -36.931,-0.6532 z m -197.71053,-56.7883 c -9.83713,-16.0884 -25.91609,-47.02 -25.91609,-49.8556 0,-1.6229 6.23695,-14.11289 13.85989,-27.75549 7.62294,-13.6426 34.39131,-62.6047 59.48529,-108.8047 53.9895,-99.39903 71.48378,-131.37076 90.30229,-165.03232 l 13.99432,-25.03228 21.50336,0.36562 21.50336,0.36562 1.57934,8.66667 c 0.86864,4.76667 3.46641,28.16667 5.77282,52 2.30642,23.83333 4.8998,47.53338 5.76308,52.66668 1.37791,8.19351 1.89524,9.27801 4.23626,8.88061 7.11094,-1.2073 21.37942,-17.84781 34.84952,-40.64307 18.74453,-31.72103 29.51718,-75.79542 25.81258,-105.60759 -5.31417,-42.764967 -31.83141,-70.915207 -75.32877,-79.967697 -12.82096,-2.66824 -40.36058,-3.01896 -56.66667,-0.72164 -16.16193,2.27701 -48.42807,10.74916 -68.66667,18.02989 -36.2879,13.05438 -98.9194,46.895557 -131.84891,71.240897 -10.10904,7.47379 -13.08424,8.06727 -20.7744,4.14404 -8.5778,-4.37607 -27.0012,-9.11978 -41.95322,-10.80226 -17.61207,-1.98179 -34.39832,-0.30911 -60.04117,5.98285 -9.92693,2.43577 -18.04897,4.0451 -18.04897,3.57632 0,-3.2928 17.70696,-17.06016 49.86302,-38.769037 36.34438,-24.53648 95.9361,-54.33615 142.13796,-71.07807 79.00379,-28.62819 165.103,-35.83487 217.67924,-18.22021 66.4007,22.24627 99.97188,76.11686 93.23618,149.613017 -2.80483,30.60471 -9.16756,54.57724 -22.56276,85.00865 -36.35918,82.60111 -98.8013,155.51621 -201.16202,234.9014 -18.75096,14.5422 -67.49884,50.7185 -72.19782,53.5787 -1.13189,0.6889 -3.20513,-1.4878 -6.41104,-6.731 z"
       id="path169-3"
       inkscape:connector-curvature="0"
       sodipodi:nodetypes="scsssssssscssccccscssscscssccssssscccsscccssssssssssssssscs" />
  </g>
</svg>
